<svg fill="none" version="1.1" viewBox="0 0 12 12" xmlns="http://www.w3.org/2000/svg"><path transform="rotate(45)" d="m2.7262-1.3093c-0.33439 0.33439-0.54138 0.7968-0.54138 1.3093 0 1.0249 0.82573 1.8506 1.8506 1.8506h2.5992v2.5992c0 1.0249 0.82573 1.8506 1.8506 1.8506s1.8506-0.82573 1.8506-1.8506v-2.5992h2.5992c1.0249 0 1.8506-0.82573 1.8506-1.8506 0-1.0249-0.82573-1.8506-1.8506-1.8506h-2.5992v-2.5992c0-1.0249-0.82573-1.8506-1.8506-1.8506s-1.8506 0.82573-1.8506 1.8506v2.5992h-2.5992c-0.51245 0-0.97486 0.20699-1.3093 0.54138z" fill="#000"/></svg>
