<svg viewBox="0 0 12 12" fill="none" xmlns="http://www.w3.org/2000/svg">
<path d="M8.76749 3.18252C10.4686 4.09852 11.3192 4.55652 11.5988 5.16493C11.8424 5.69502 11.8424 6.30503 11.5988 6.83511C11.3192 7.44352 10.4686 7.90153 8.76749 8.81753L5.71712 10.46C4.16216 11.2973 3.38468 11.716 2.7497 11.6359C2.19553 11.566 1.69585 11.2675 1.37157 10.8127C1 10.2916 1 9.40858 1 7.64253L1 4.35752C1 2.59147 1 1.70844 1.37157 1.18733C1.69585 0.732544 2.19553 0.434086 2.7497 0.364182C3.38468 0.284083 4.16216 0.702726 5.71712 1.54001L8.76749 3.18252Z" fill="#000"/>
</svg>
