<svg viewBox="0 0 16 16" fill="none" xmlns="http://www.w3.org/2000/svg">
<path fill-rule="evenodd" clip-rule="evenodd" d="M15.3869 12.4817L15.4606 12.5586C16.2001 13.3683 16.1703 14.6347 15.3907 15.4129C14.9896 15.8134 14.4705 16 13.9741 16C13.4776 16 12.9587 15.8133 12.5577 15.4129L10.6076 13C9.55404 13.6348 8.31967 14 7 14C3.13401 14 0 10.866 0 7C0 3.13401 3.13401 0 7 0C10.866 0 14 3.13401 14 7C14 8.31598 13.6369 9.54714 13.0053 10.5987L15.3869 12.4817ZM7 2C9.76142 2 12 4.23858 12 7C12 9.76142 9.76142 12 7 12C4.23858 12 2 9.76142 2 7C2 4.23858 4.23858 2 7 2Z" fill="#000"/>
</svg>
