<svg width="301" height="299" viewBox="0 0 301 299" fill="none" xmlns="http://www.w3.org/2000/svg">
<path fill-rule="evenodd" clip-rule="evenodd" d="M34.6724 14.4002C48.9897 4.63474 61.0429 1.57888 89.1451 0.582408C109.589 -0.148341 188.301 -0.214772 207.679 0.515976C226.458 1.1803 236.78 2.37607 245.37 4.90047C267.812 11.3444 288.722 32.2039 295.248 54.5914C297.911 63.8253 298.91 73.2586 299.643 96.8419C300.509 123.281 299.976 209.377 298.91 221.733C296.779 244.984 291.319 258.537 278.267 272.421C265.814 285.641 252.696 292.815 235.315 295.738C223.794 297.732 209.011 298.13 149.744 298.13C77.358 298.13 67.1026 297.532 52.3859 292.815C38.1351 288.298 24.1508 277.669 14.4949 264.05C7.36953 254.152 3.17422 242.46 1.17645 227.38C0.0443838 218.744 -0.488354 95.7127 0.577122 80.898C2.10874 58.5772 5.30517 47.6824 13.9622 34.994C18.2907 28.6166 27.9465 18.984 34.6724 14.4002ZM243.166 22.9971C240.933 22.2201 239.816 21.8316 238.844 22.1577C238.052 22.4234 237.302 23.1403 237.001 23.9195C236.631 24.8755 236.999 26.1122 237.735 28.5854L240.889 39.1764C241.041 39.6887 241.117 39.9448 241.148 40.2057C241.174 40.4372 241.174 40.6711 241.146 40.9026C241.115 41.1633 241.038 41.4192 240.884 41.931L226.169 90.7649C225.8 91.9903 225.616 92.6031 225.251 93.0573C224.929 93.4583 224.51 93.7699 224.033 93.9622C223.493 94.18 222.853 94.18 221.574 94.18H191.575C189.405 94.18 188.32 94.18 187.593 93.7279C186.956 93.3319 186.49 92.7116 186.288 91.9893C186.057 91.1646 186.36 90.1229 186.966 88.0396L200.387 41.8889C200.532 41.3925 200.604 41.1443 200.633 40.8917C200.658 40.6675 200.659 40.441 200.633 40.2167C200.605 39.964 200.533 39.7157 200.39 39.2189L195.293 21.5372C194.938 20.3063 194.761 19.6909 194.401 19.2317C194.083 18.8268 193.665 18.5093 193.19 18.312C192.651 18.0882 192.013 18.0822 190.736 18.0702C183.072 17.9982 174.039 17.9507 164.529 17.928C162.346 17.9228 161.254 17.9202 160.523 18.3748C159.883 18.7727 159.416 19.398 159.216 20.1242C158.987 20.9539 159.299 22.0008 159.922 24.0947L164.415 39.1761C164.568 39.6885 164.644 39.9447 164.674 40.2056C164.701 40.4372 164.701 40.6712 164.673 40.9027C164.642 41.1635 164.565 41.4195 164.411 41.9314L149.696 90.7649C149.327 91.9903 149.142 92.6031 148.778 93.0573C148.456 93.4583 148.037 93.7699 147.56 93.9622C147.02 94.18 146.38 94.18 145.101 94.18H115.101C112.931 94.18 111.847 94.18 111.119 93.7279C110.482 93.3319 110.017 92.7116 109.814 91.9892C109.583 91.1646 109.886 90.1229 110.492 88.0396L123.914 41.8878C124.059 41.3918 124.131 41.1438 124.16 40.8914C124.185 40.6673 124.186 40.4411 124.161 40.217C124.132 39.9645 124.061 39.7163 123.918 39.2199L118.824 21.5161C118.463 20.2628 118.283 19.6362 117.915 19.1722C117.591 18.763 117.165 18.4447 116.68 18.2504C116.131 18.03 115.479 18.0352 114.176 18.0457C101.674 18.146 91.6687 18.3033 87.1469 18.5189V18.5189C85.8128 18.5773 85.1458 18.6064 84.6424 18.8221C83.6193 19.2605 82.9108 20.2558 82.8316 21.366C82.7926 21.9123 82.9862 22.5613 83.3733 23.8595L87.9416 39.1754C88.0945 39.688 88.171 39.9444 88.2012 40.2054C88.2279 40.4372 88.2276 40.6712 88.2002 40.9029C88.1693 41.1639 88.0921 41.42 87.9377 41.9322L73.2233 90.7649C72.8541 91.9903 72.6694 92.6031 72.3051 93.0573C71.9834 93.4583 71.5641 93.7699 71.0873 93.9622C70.5473 94.18 69.9074 94.18 68.6275 94.18H38.6279C36.4583 94.18 35.3735 94.18 34.6461 93.7279C34.009 93.3319 33.5434 92.7116 33.3411 91.9892C33.1101 91.1646 33.413 90.1229 34.0189 88.0396L47.4406 41.8893C47.585 41.3927 47.6572 41.1445 47.6861 40.8918C47.7118 40.6675 47.712 40.441 47.6869 40.2167C47.6585 39.9639 47.5869 39.7155 47.4436 39.2187L46.4497 35.7725C45.8412 33.6628 45.537 32.6079 44.8207 32.0171C44.2306 31.5304 43.3404 31.2653 42.5802 31.3498C41.6574 31.4525 40.8886 32.1147 39.3509 33.4392C29.8415 41.6306 22.9177 52.7595 20.5548 64.3568C18.0909 76.3146 17.7579 88.1392 18.0909 156.631L18.0919 156.84C18.4238 226.85 18.4274 227.591 21.9532 239.338C25.8822 252.425 38.1351 266.508 51.4536 273.152C56.5146 275.742 63.5068 277.669 72.1636 278.931C79.7554 280.061 204.15 280.592 218.4 279.529C235.714 278.267 244.371 276.008 253.095 270.295C265.015 262.523 274.404 250.698 277.867 239.005C281.596 226.45 282.529 204.262 282.062 135.705C281.958 119.823 281.848 107.97 281.682 98.8689C281.652 97.2322 281.637 96.4139 281.306 95.7841C281.016 95.2316 280.555 94.7799 279.998 94.4996C279.362 94.18 278.54 94.18 276.895 94.18H268.09C265.908 94.18 264.817 94.18 264.088 93.7249C263.449 93.3263 262.984 92.7021 262.784 91.9764C262.556 91.1477 262.867 90.1019 263.49 88.0103L273.903 53.0348C274.11 52.3415 274.213 51.9949 274.229 51.6258C274.243 51.3158 274.2 50.9546 274.113 50.6566C274.01 50.3017 273.845 50.0172 273.513 49.4482C270.967 45.0803 267.581 40.9075 263.017 36.3226C256.428 29.7491 250.76 25.6394 243.166 22.9971Z" fill="#1C1C1C"/>
<path fill-rule="evenodd" clip-rule="evenodd" d="M173.528 160.09L80.7923 160.09C77.4491 160.09 75.7775 160.09 74.494 160.744C73.3651 161.319 72.4472 162.237 71.8719 163.366C71.218 164.65 71.218 166.33 71.218 169.69L71.218 188.443C71.218 191.804 71.218 193.484 71.872 194.768C72.4474 195.897 73.3653 196.814 74.4944 197.39C75.778 198.044 77.4498 198.043 80.7933 198.043C105.546 198.041 169.978 198.035 173.528 198.044C174.994 198.048 176.581 199.635 178.697 201.751C182.935 205.989 189.292 212.345 201.031 212.345L206.099 212.345L206.099 146.339L201.031 146.339C189.296 146.339 182.94 152.451 178.703 156.525C176.584 158.562 174.995 160.09 173.528 160.09ZM136.871 169.649C131.707 169.624 127.499 173.789 127.474 178.954C127.448 184.118 131.614 188.325 136.778 188.351L149.98 188.416C155.144 188.441 159.351 184.276 159.377 179.111C159.402 173.947 155.236 169.74 150.072 169.714L136.871 169.649Z" fill="#1C1C1C"/>
<path d="M218.94 212.345C222.296 212.345 223.974 212.345 225.258 211.692C226.387 211.116 227.304 210.198 227.88 209.069C228.534 207.786 228.534 206.106 228.534 202.745L228.534 155.939C228.534 152.579 228.534 150.898 227.88 149.615C227.304 148.486 226.387 147.568 225.258 146.993C223.974 146.339 222.296 146.339 218.94 146.339L215.099 146.339L215.099 212.345L218.94 212.345Z" fill="#1C1C1C"/>
<path d="M142.875 179.03C142.892 175.688 145.614 172.993 148.956 173.009L150.056 173.015C153.397 173.031 156.093 175.753 156.076 179.095C156.06 182.437 153.338 185.132 149.996 185.116L148.896 185.11C145.554 185.094 142.859 182.372 142.875 179.03Z" fill="#1C1C1C"/>
</svg>
