<svg width="301" height="299" viewBox="0 0 301 299" fill="none" xmlns="http://www.w3.org/2000/svg">
<path fill-rule="evenodd" clip-rule="evenodd" d="M34.6724 14.4002C48.9897 4.63474 61.0429 1.57888 89.1451 0.582408C109.589 -0.148341 188.301 -0.214772 207.679 0.515976C226.458 1.1803 236.78 2.37607 245.37 4.90047C267.812 11.3444 288.722 32.2039 295.248 54.5914C297.911 63.8253 298.91 73.2586 299.643 96.8419C300.509 123.281 299.976 209.377 298.91 221.733C296.779 244.984 291.319 258.537 278.267 272.421C265.814 285.641 252.696 292.815 235.315 295.738C223.794 297.732 209.011 298.13 149.744 298.13C77.358 298.13 67.1026 297.532 52.3859 292.815C38.1351 288.298 24.1508 277.669 14.4949 264.05C7.36953 254.152 3.17422 242.46 1.17645 227.38C0.0443838 218.744 -0.488354 95.7127 0.577122 80.898C2.10874 58.5772 5.30517 47.6824 13.9622 34.994C18.2907 28.6166 27.9465 18.984 34.6724 14.4002ZM243.354 23.0629C240.954 22.2166 239.753 21.7934 238.724 22.1863C238.024 22.4538 237.35 23.0948 237.048 23.7812C236.605 24.7894 237.001 26.1185 237.792 28.7768L240.878 39.142C241.041 39.6885 241.123 39.9617 241.151 40.2404C241.173 40.449 241.173 40.6593 241.15 40.8679C241.121 41.1465 241.038 41.4195 240.874 41.9654L226.195 90.6795C225.801 91.9874 225.604 92.6413 225.202 93.1165C224.904 93.4695 224.528 93.7488 224.104 93.9326C223.533 94.18 222.85 94.18 221.484 94.18H191.735C189.418 94.18 188.26 94.18 187.5 93.6674C186.941 93.2909 186.525 92.7373 186.32 92.0958C186.04 91.2227 186.363 90.1105 187.01 87.8861L200.377 41.9223C200.531 41.3927 200.608 41.128 200.636 40.8581C200.657 40.6561 200.657 40.4524 200.637 40.2504C200.61 39.9804 200.533 39.7155 200.381 39.1856L195.318 21.6229C194.939 20.3093 194.75 19.6524 194.353 19.1717C194.058 18.8152 193.683 18.5305 193.261 18.3423C192.691 18.0885 192.01 18.0821 190.646 18.0694C183.045 17.9983 174.104 17.9512 164.69 17.9284C162.359 17.9228 161.193 17.92 160.429 18.4355C159.869 18.8139 159.452 19.3719 159.247 20.0169C158.969 20.8955 159.302 22.0134 159.968 24.2491L164.405 39.1416C164.568 39.6882 164.649 39.9616 164.678 40.2403C164.7 40.449 164.7 40.6594 164.677 40.868C164.647 41.1467 164.565 41.4197 164.401 41.9658L149.722 90.6795C149.328 91.9874 149.131 92.6413 148.729 93.1165C148.431 93.4695 148.055 93.7488 147.631 93.9326C147.06 94.18 146.377 94.18 145.011 94.18H115.261C112.944 94.18 111.786 94.18 111.026 93.6674C110.467 93.2909 110.052 92.7372 109.846 92.0958C109.566 91.2226 109.89 90.1104 110.537 87.8861L123.905 41.9211C124.059 41.392 124.136 41.1275 124.163 40.8578C124.184 40.6559 124.184 40.4525 124.164 40.2506C124.137 39.9808 124.061 39.7161 123.909 39.1865L118.849 21.6036C118.464 20.2659 118.271 19.5971 117.866 19.1117C117.565 18.7515 117.183 18.4662 116.752 18.2803C116.172 18.0296 115.476 18.0352 114.086 18.0464C101.626 18.1468 91.6578 18.3038 87.1469 18.5189C85.8128 18.5773 85.1458 18.6064 84.6423 18.8221C83.6193 19.2605 82.9108 20.2558 82.8316 21.366C82.7926 21.9123 82.9862 22.5613 83.3733 23.8595L87.9313 39.1409C88.0944 39.6878 88.176 39.9613 88.205 40.2402C88.2266 40.449 88.2263 40.6595 88.2041 40.8682C88.1743 41.147 88.092 41.4202 87.9274 41.9667L73.2491 90.6795C72.855 91.9874 72.6579 92.6413 72.2563 93.1165C71.958 93.4695 71.5821 93.7488 71.1581 93.9326C70.5872 94.18 69.9042 94.18 68.5383 94.18H38.7878C36.4713 94.18 35.313 94.18 34.5528 93.6674C33.9942 93.2909 33.5787 92.7373 33.3731 92.0958C33.0932 91.2226 33.4166 90.1105 34.0636 87.8861L47.4309 41.9226C47.585 41.3929 47.662 41.1281 47.6898 40.8582C47.7106 40.6561 47.7108 40.4524 47.6905 40.2503C47.6633 39.9803 47.5868 39.7153 47.434 39.1853L46.4957 35.932C45.8428 33.6683 45.5164 32.5365 44.7226 31.9346C44.1753 31.5196 43.3774 31.2831 42.6923 31.333C41.6988 31.4052 40.8743 32.1194 39.2254 33.5477C29.7806 41.7287 22.9073 52.8106 20.5548 64.3568C18.0909 76.3146 17.7579 88.1392 18.0909 156.631L18.0919 156.84C18.4238 226.85 18.4274 227.591 21.9532 239.338C25.8822 252.425 38.1351 266.508 51.4536 273.152C56.5146 275.742 63.5068 277.669 72.1636 278.931C79.7554 280.061 204.15 280.592 218.4 279.529C235.714 278.267 244.371 276.008 253.095 270.295C265.015 262.523 274.404 250.698 277.867 239.005C281.596 226.45 282.529 204.262 282.062 135.705C281.959 119.891 281.849 108.072 281.684 98.9867C281.652 97.2387 281.636 96.3648 281.262 95.7025C280.985 95.2144 280.574 94.8101 280.081 94.5428C279.412 94.18 278.534 94.18 276.778 94.18H268.251C265.921 94.18 264.756 94.18 263.994 93.664C263.434 93.285 263.019 92.728 262.816 92.0834C262.538 91.2059 262.871 90.0893 263.536 87.8561L273.889 53.0816C274.11 52.3403 274.221 51.9697 274.231 51.5749C274.239 51.2958 274.2 50.9701 274.126 50.7008C274.022 50.3199 273.844 50.0152 273.488 49.4059C270.946 45.0534 267.566 40.8927 263.017 36.3226C256.482 29.8035 250.854 25.7075 243.354 23.0629Z" fill="#1C1C1C"/>
<path d="M145.136 116.861C148.233 115.488 151.765 115.489 154.862 116.862C158.411 118.435 161.137 123.112 166.587 132.464L210.673 208.123C216.192 217.593 218.951 222.329 218.553 226.216C218.206 229.606 216.433 232.689 213.678 234.695C210.519 236.995 205.039 236.994 194.079 236.991L105.904 236.964C94.9489 236.961 89.4714 236.959 86.3141 234.658C83.5604 232.652 81.789 229.569 81.443 226.179C81.0463 222.292 83.8048 217.56 89.3219 208.095L133.41 132.461C138.861 123.11 141.587 118.434 145.136 116.861ZM150 204C146.686 204 144 206.687 144 210C144 213.314 146.686 216 150 216C153.313 216 155.999 213.314 156 210C156 206.687 153.313 204 150 204ZM148.235 161C144.831 161 142.109 163.829 142.24 167.231L143.278 194.231C143.402 197.452 146.05 200 149.274 200H150.726C153.95 200 156.598 197.452 156.722 194.231L157.76 167.231C157.891 163.829 155.169 161.001 151.765 161H148.235Z" fill="#1C1C1C"/>
</svg>
