<svg width="68" height="67" viewBox="0 0 68 67" fill="none" xmlns="http://www.w3.org/2000/svg">
<rect width="68" height="66.5378" rx="16.5" fill="#3B3F3F" fill-opacity="0.1"/>
<path d="M30.2651 33.0501L14.3811 48.3764C13.2063 49.5108 13.2063 51.3452 14.3811 52.4675C15.5558 53.6019 17.4554 53.5898 18.6301 52.4675L36.6262 35.1017C37.7635 34.0035 37.7885 32.2416 36.7137 31.1072L18.6426 13.6207C18.0553 13.0535 17.2804 12.7759 16.5181 12.7759C15.7558 12.7759 14.9809 13.0535 14.3936 13.6207C13.2188 14.7551 13.2188 16.5894 14.3936 17.7117L30.2651 33.0501Z" fill="#424747" stroke="#424747" stroke-width="6.2"/>
<path d="M37.7349 33.0395L53.6189 17.7132C54.7937 16.5788 54.7937 14.7445 53.6189 13.6222C52.4442 12.4878 50.5446 12.4999 49.3699 13.6222L31.3738 30.988C30.2365 32.0862 30.2115 33.8481 31.2863 34.9825L49.3574 52.469C49.9447 53.0362 50.7196 53.3137 51.4819 53.3137C52.2442 53.3137 53.0191 53.0362 53.6064 52.469C54.7812 51.3346 54.7812 49.5002 53.6064 48.3779L37.7349 33.0395Z" fill="#424747" stroke="#424747" stroke-width="6.2"/>
</svg>
