<svg width="26" height="16" viewBox="0 0 26 16" fill="none" xmlns="http://www.w3.org/2000/svg">
<path d="M10.7011 14.9041C10.2868 14.9041 9.95105 14.5683 9.95105 14.1541C9.95105 13.7399 10.2868 13.4041 10.7011 13.4041H15.299C15.7132 13.4041 16.049 13.7399 16.049 14.1541C16.049 14.5683 15.7132 14.9041 15.299 14.9041H10.7011Z" fill="black"/>
<path d="M5.65304 8.02786C5.65304 7.61365 5.98883 7.27786 6.40304 7.27786L19.5971 7.27786C20.0114 7.27786 20.3471 7.61365 20.3471 8.02786C20.3471 8.44207 20.0114 8.77786 19.5971 8.77786L6.40304 8.77786C5.98883 8.77786 5.65304 8.44207 5.65304 8.02786Z" fill="black"/>
<path d="M23.6614 1.09595C24.0756 1.09595 24.4114 1.43173 24.4114 1.84595C24.4114 2.26016 24.0756 2.59595 23.6614 2.59595H2.33862C1.92441 2.59595 1.58862 2.26016 1.58862 1.84595C1.58862 1.43173 1.92441 1.09595 2.33862 1.09595H23.6614Z" fill="black"/>
<path d="M10.7011 14.9041C10.2868 14.9041 9.95105 14.5683 9.95105 14.1541C9.95105 13.7399 10.2868 13.4041 10.7011 13.4041H15.299C15.7132 13.4041 16.049 13.7399 16.049 14.1541C16.049 14.5683 15.7132 14.9041 15.299 14.9041H10.7011Z" stroke="black" stroke-width="2" stroke-linejoin="round"/>
<path d="M5.65304 8.02786C5.65304 7.61365 5.98883 7.27786 6.40304 7.27786L19.5971 7.27786C20.0114 7.27786 20.3471 7.61365 20.3471 8.02786C20.3471 8.44207 20.0114 8.77786 19.5971 8.77786L6.40304 8.77786C5.98883 8.77786 5.65304 8.44207 5.65304 8.02786Z" stroke="black" stroke-width="2" stroke-linejoin="round"/>
<path d="M23.6614 1.09595C24.0756 1.09595 24.4114 1.43173 24.4114 1.84595C24.4114 2.26016 24.0756 2.59595 23.6614 2.59595H2.33862C1.92441 2.59595 1.58862 2.26016 1.58862 1.84595C1.58862 1.43173 1.92441 1.09595 2.33862 1.09595H23.6614Z" stroke="black" stroke-width="2" stroke-linejoin="round"/>
</svg>
