<svg width="49" height="49" viewBox="0 0 49 49" fill="none" xmlns="http://www.w3.org/2000/svg">
<g>
<path d="M13.9823 11.4138H38.3846C39.5082 11.4138 40.0701 12.7758 39.2772 13.5687L33.3656 19.4811C30.9222 21.9248 29.5496 25.2389 29.5496 28.6945V37.0801C29.5496 38.1064 28.3935 38.6953 27.5634 38.1142L23.3556 35.1698C23.0181 34.9336 22.8172 34.5476 22.8172 34.1357V28.6944C22.8172 25.2389 21.4446 21.9248 19.0013 19.4812L13.0898 13.5687C12.2953 12.7742 12.8611 11.4138 13.9823 11.4138Z" fill="url(#paint0_radial_1013_1325)"/>
<path d="M16.9967 20.1101L14.0222 17.1352L10.4791 17.1541C9.66012 17.1585 9.25062 17.1607 8.99755 17.4165C8.74448 17.6723 8.74667 18.0818 8.75105 18.9008C8.75542 19.7198 8.75761 20.1293 9.01341 20.3824C9.2692 20.6354 9.6787 20.6332 10.4977 20.6289L17.4543 20.5917C17.3062 20.4277 17.1537 20.2671 16.9967 20.1101Z" fill="url(#paint1_radial_1013_1325)"/>
<path d="M19.3188 23.2655C19.8911 24.3554 20.3072 25.5231 20.5527 26.7337L10.4977 26.7875C9.6787 26.7918 9.2692 26.794 9.01341 26.541C8.75761 26.2879 8.75542 25.8784 8.75105 25.0594C8.74667 24.2404 8.74448 23.8309 8.99755 23.5751C9.25062 23.3193 9.66012 23.3171 10.4791 23.3127L19.3188 23.2655Z" fill="url(#paint2_radial_1013_1325)"/>
<path d="M20.8125 29.4161V32.8909L10.4977 32.9461C9.6787 32.9504 9.2692 32.9526 9.01341 32.6996C8.75761 32.4465 8.75542 32.037 8.75105 31.218C8.74667 30.399 8.74448 29.9895 8.99755 29.7337C9.25062 29.4779 9.66012 29.4757 10.4791 29.4713L20.8125 29.4161Z" fill="url(#paint3_radial_1013_1325)"/>
</g>
<defs>
<radialGradient id="paint0_radial_1013_1325" cx="0" cy="0" r="1" gradientUnits="userSpaceOnUse" gradientTransform="translate(6.74589 28.9788) rotate(-35.1709) scale(15.5091 17.7946)">
<stop stop-color="#1C1C1C"/>
<stop offset="0.86" stop-color="#1C1C1C"/>
<stop offset="1" stop-color="#1C1C1C"/>
</radialGradient>
<radialGradient id="paint1_radial_1013_1325" cx="0" cy="0" r="1" gradientUnits="userSpaceOnUse" gradientTransform="translate(6.74589 28.9788) rotate(-35.1709) scale(15.5091 17.7946)">
<stop stop-color="#1C1C1C"/>
<stop offset="0.86" stop-color="#1C1C1C"/>
<stop offset="1" stop-color="#1C1C1C"/>
</radialGradient>
<radialGradient id="paint2_radial_1013_1325" cx="0" cy="0" r="1" gradientUnits="userSpaceOnUse" gradientTransform="translate(6.74589 28.9788) rotate(-35.1709) scale(15.5091 17.7946)">
<stop stop-color="#1C1C1C"/>
<stop offset="0.86" stop-color="#1C1C1C"/>
<stop offset="1" stop-color="#1C1C1C"/>
</radialGradient>
<radialGradient id="paint3_radial_1013_1325" cx="0" cy="0" r="1" gradientUnits="userSpaceOnUse" gradientTransform="translate(6.74589 28.9788) rotate(-35.1709) scale(15.5091 17.7946)">
<stop stop-color="#1C1C1C"/>
<stop offset="0.86" stop-color="#1C1C1C"/>
<stop offset="1" stop-color="#1C1C1C"/>
</radialGradient>
</defs>
</svg>
