<svg width="450" height="448" viewBox="0 0 450 448" fill="none" xmlns="http://www.w3.org/2000/svg">
<path d="M352.647 147.23C373.836 129.717 390.279 150.279 372.405 169.476C361.301 181.402 353.704 189.598 293.795 260.727C288.63 266.86 283.782 272.682 279.208 278.175C230.737 336.392 213.033 357.656 173.753 320.051C148.392 295.77 144.998 292.313 140.761 287.997L140.76 287.996C137.816 284.997 134.465 281.583 123.054 270.481C121.721 269.184 120.409 267.914 119.123 266.669C93.566 241.925 78.1525 227.002 103.528 201.281C127.309 177.175 143.113 191.478 170.113 215.914C173.373 218.864 176.795 221.961 180.415 225.157C185.189 229.371 189.186 233.166 192.663 236.467C213.665 256.405 215.738 258.373 255.701 226.386C295.979 194.147 323.243 171.571 343.584 154.73L343.584 154.729L343.642 154.682L343.647 154.678L343.912 154.458C346.974 151.923 349.879 149.518 352.647 147.23Z" fill="#1C1C1C" fill-opacity="0.90"/>
<path fill-rule="evenodd" clip-rule="evenodd" d="M52.2534 21.8359C73.7055 7.16868 91.7652 2.57893 133.871 1.08227C164.503 -0.015281 282.44 -0.115058 311.475 0.982492C339.612 1.98026 355.077 3.77626 367.949 7.56779C401.574 17.2462 432.904 48.5763 442.682 82.2012C446.673 96.0702 448.17 110.239 449.267 145.66C450.564 185.371 449.766 314.682 448.17 333.241C444.977 368.163 436.795 388.517 417.239 409.371C398.58 429.227 378.924 440.003 352.882 444.393C335.621 447.386 313.47 447.985 224.669 447.985C116.211 447.985 100.845 447.087 78.7942 440.003C57.4418 433.218 36.4886 417.253 22.0209 396.799C11.3447 381.932 5.05877 364.371 2.06545 341.722C0.369236 328.751 -0.428982 143.963 1.16745 121.713C3.46233 88.1878 8.25164 71.8244 21.2227 52.7669C27.7082 43.1883 42.1759 28.7206 52.2534 21.8359ZM353.095 31.6462L361.849 61.1183L337.638 141.662H277.763L301.131 61.1183L291.435 27.4028C276.503 27.237 257.228 27.1413 237.162 27.1173L247.267 61.1183L223.056 141.662H163.181L186.549 61.1183L176.832 27.2706C155.576 27.4177 138.299 27.6673 130.878 28.0221C128.08 28.1447 125.445 28.2777 122.956 28.4246L132.684 61.1183L108.473 141.662H48.5986L71.9663 61.1183L67.1436 44.3568C48.8851 56.8634 35.2651 76.3793 31.1006 96.8685C27.4089 114.828 26.91 132.589 27.4089 235.459L27.4104 235.774C27.9078 340.926 27.913 342.039 33.196 359.682C39.0828 379.338 57.4418 400.491 77.3973 410.468C84.9804 414.36 95.457 417.253 108.428 419.149C119.803 420.845 306.187 421.643 327.539 420.047C353.481 418.151 366.452 414.759 379.523 406.178C397.383 394.504 411.452 376.744 416.64 359.183C422.228 340.325 423.624 306.999 422.926 204.029C422.742 175.849 422.544 156.114 422.212 141.662H392.346L411.538 77.0463C407.588 69.5317 402.115 62.542 394.39 54.7624C381.454 41.8265 370.89 35.2432 353.095 31.6462Z" fill="#1C1C1C" fill-opacity="0.90"/>
</svg>
