<svg width="450" height="448" viewBox="0 0 450 448" fill="none" xmlns="http://www.w3.org/2000/svg">
<path d="M352.344 147.022C373.533 129.509 389.976 150.072 372.102 169.269C360.999 181.194 353.401 189.39 293.492 260.519C288.327 266.652 283.479 272.474 278.905 277.968C230.434 336.185 212.73 357.449 173.451 319.844C148.089 295.563 144.695 292.105 140.458 287.789L140.457 287.789C137.514 284.79 134.162 281.376 122.752 270.273C121.418 268.976 120.107 267.706 118.821 266.461C93.2633 241.717 77.8498 226.794 103.225 201.073C127.006 176.968 142.81 191.271 169.811 215.707C173.07 218.656 176.493 221.754 180.112 224.949C184.886 229.164 188.883 232.958 192.361 236.26C213.362 256.197 215.435 258.165 255.398 226.178C295.676 193.939 322.941 171.364 343.281 154.522L343.282 154.522L343.339 154.474L343.344 154.47L343.609 154.25C346.671 151.715 349.576 149.31 352.344 147.022Z" fill="#1C1C1C" fill-opacity="0.05"/>
<path fill-rule="evenodd" clip-rule="evenodd" d="M51.9507 21.6284C73.4028 6.96116 91.4625 2.37141 133.569 0.87475C164.2 -0.222801 282.137 -0.322578 311.172 0.774972C339.309 1.77275 354.775 3.56874 367.646 7.36027C401.271 17.0387 432.601 48.3687 442.379 81.9937C446.37 95.8627 447.867 110.031 448.964 145.452C450.262 185.163 449.463 314.475 447.867 333.033C444.674 367.955 436.492 388.31 416.936 409.163C398.278 429.019 378.622 439.795 352.58 444.185C335.318 447.179 313.168 447.777 224.366 447.777C115.908 447.777 100.542 446.879 78.4914 439.795C57.1391 433.01 36.1859 417.046 21.7182 396.591C11.042 381.725 4.75603 364.164 1.76272 341.514C0.066502 328.543 -0.731716 143.756 0.86472 121.505C3.1596 87.9803 7.94891 71.6168 20.92 52.5594C27.4055 42.9808 41.8732 28.5131 51.9507 21.6284ZM352.792 31.4387L361.546 60.9108L337.335 141.454H277.461L300.828 60.9108L291.132 27.1953C276.2 27.0295 256.926 26.9338 236.859 26.9098L246.964 60.9108L222.753 141.454H162.878L186.246 60.9108L176.529 27.063C155.274 27.2102 137.996 27.4598 130.575 27.8146C127.777 27.9372 125.143 28.0702 122.654 28.2171L132.382 60.9108L108.171 141.454H48.2959L71.6635 60.9108L66.8409 44.1493C48.5824 56.6559 34.9624 76.1717 30.7979 96.6609C27.1061 114.621 26.6073 132.381 27.1061 235.252L27.1076 235.567C27.605 340.718 27.6103 341.831 32.8932 359.474C38.7801 379.13 57.1391 400.283 77.0946 410.261C84.6776 414.152 95.1543 417.046 108.125 418.942C119.5 420.638 305.884 421.436 327.236 419.84C353.178 417.944 366.149 414.551 379.22 405.971C397.08 394.297 411.149 376.536 416.337 358.975C421.925 340.117 423.322 306.792 422.623 203.822C422.439 175.641 422.241 155.907 421.909 141.454H392.043L411.235 76.8388C407.286 69.3242 401.812 62.3345 394.087 54.5549C381.151 41.619 370.587 35.0357 352.792 31.4387Z" fill="#1C1C1C" fill-opacity="0.05"/>
</svg>
