<svg viewBox="0 0 376 108" fill="none" xmlns="http://www.w3.org/2000/svg">
<path fill-rule="evenodd" clip-rule="evenodd" d="M7.80619 23.2415C11.0296 21.0433 13.7433 20.3554 20.0703 20.1311C24.6729 19.9666 42.3943 19.9517 46.7572 20.1161C50.9851 20.2657 53.309 20.5349 55.2431 21.1031C60.2956 22.5537 65.0033 27.2492 66.4725 32.2887C67.0722 34.3673 67.2972 36.4908 67.462 41.7994C67.6571 47.7511 67.537 67.1315 67.2972 69.9129C66.8174 75.1468 65.588 78.1975 62.6494 81.3228C59.8459 84.2987 56.8923 85.9137 52.9792 86.5716C50.3854 87.0204 47.0571 87.11 33.7136 87.11C17.4165 87.11 15.1076 86.9754 11.7942 85.9137C8.58581 84.8968 5.43735 82.5042 3.26341 79.4386C1.65919 77.2105 0.714648 74.5786 0.264869 71.184C0.00999263 69.24 -0.109949 41.5452 0.129934 38.2104C0.474766 33.1859 1.19442 30.7335 3.14347 27.8773C4.11799 26.4417 6.29193 24.2734 7.80619 23.2415ZM54.7891 25.1915C54.2487 25.001 53.9785 24.9058 53.7468 24.9942C53.5891 25.0544 53.4375 25.1987 53.3695 25.3532C53.2697 25.5802 53.3587 25.8794 53.5369 26.4777L54.2318 28.811C54.2684 28.934 54.2867 28.9955 54.2932 29.0582C54.2981 29.1052 54.298 29.1526 54.293 29.1995C54.2863 29.2622 54.2678 29.3237 54.2307 29.4466L50.9259 40.4123C50.8372 40.7067 50.7929 40.8539 50.7024 40.9608C50.6353 41.0403 50.5507 41.1032 50.4552 41.1445C50.3267 41.2002 50.1729 41.2002 49.8654 41.2002H43.1674C42.6459 41.2002 42.3851 41.2002 42.214 41.0849C42.0882 41.0001 41.9947 40.8755 41.9484 40.7311C41.8853 40.5345 41.9582 40.2842 42.1038 39.7835L45.1133 29.4368C45.148 29.3176 45.1653 29.258 45.1716 29.1973C45.1763 29.1518 45.1763 29.106 45.1717 29.0605C45.1656 28.9997 45.1484 28.9401 45.114 28.8208L43.9742 24.8674C43.8889 24.5717 43.8463 24.4238 43.7569 24.3156C43.6905 24.2354 43.6062 24.1713 43.5111 24.1289C43.3829 24.0718 43.2294 24.0703 42.9224 24.0675C41.2112 24.0515 39.198 24.0409 37.0786 24.0357C36.5537 24.0345 36.2913 24.0338 36.1193 24.1499C35.9931 24.2351 35.8992 24.3607 35.8532 24.5059C35.7906 24.7037 35.8656 24.9553 36.0155 25.4586L37.0144 28.8109C37.0511 28.934 37.0694 28.9955 37.0759 29.0582C37.0808 29.1052 37.0807 29.1526 37.0757 29.1995C37.069 29.2623 37.0505 29.3237 37.0134 29.4466L33.7087 40.4123C33.62 40.7067 33.5756 40.8539 33.4852 40.9608C33.418 41.0403 33.3334 41.1032 33.2379 41.1445C33.1094 41.2002 32.9556 41.2002 32.6481 41.2002H25.95C25.4285 41.2002 25.1677 41.2002 24.9966 41.0849C24.8708 41.0001 24.7773 40.8755 24.731 40.7311C24.6679 40.5345 24.7408 40.2842 24.8864 39.7834L27.8961 29.4366C27.9308 29.3175 27.9481 29.2579 27.9543 29.1972C27.959 29.1518 27.9591 29.106 27.9545 29.0605C27.9485 28.9998 27.9313 28.9402 27.897 28.821L26.7578 24.863C26.6711 24.5619 26.6278 24.4114 26.5365 24.3021C26.4688 24.221 26.3828 24.1568 26.2858 24.115C26.155 24.0585 25.9985 24.0598 25.6854 24.0623C22.8801 24.0849 20.636 24.1202 19.6204 24.1687C19.32 24.1818 19.1699 24.1884 19.0565 24.2369C18.8262 24.3356 18.6667 24.5596 18.6488 24.8096C18.6401 24.9325 18.6836 25.0786 18.7708 25.3708L19.797 28.8108C19.8337 28.9339 19.8521 28.9954 19.8586 29.0582C19.8635 29.1052 19.8634 29.1526 19.8584 29.1996C19.8517 29.2623 19.8332 29.3238 19.7961 29.4468L16.4914 40.4123C16.4027 40.7067 16.3583 40.8539 16.2679 40.9608C16.2007 41.0403 16.1161 41.1032 16.0207 41.1445C15.8921 41.2002 15.7384 41.2002 15.4308 41.2002H8.73275C8.2112 41.2002 7.95043 41.2002 7.77927 41.0849C7.65352 41.0001 7.55996 40.8755 7.51367 40.7311C7.45066 40.5345 7.52348 40.2842 7.66913 39.7834L10.6787 29.4369C10.7134 29.3177 10.7307 29.2581 10.737 29.1973C10.7416 29.1518 10.7417 29.106 10.7371 29.0605C10.731 28.9997 10.7138 28.94 10.6794 28.8207L10.4681 28.0884C10.3211 27.5789 10.2476 27.3241 10.0689 27.1886C9.9457 27.0952 9.76605 27.0419 9.61183 27.0532C9.38813 27.0694 9.20251 27.2302 8.83126 27.5517C6.70484 29.3933 5.15738 31.8878 4.62774 34.4869C4.073 37.1787 3.99805 39.8404 4.073 55.2581L4.07323 55.3053C4.14797 71.0647 4.14877 71.2315 4.94258 73.8757C5.82716 76.8216 8.58581 79.9919 11.5844 81.4873C12.7238 82.0705 14.298 82.5042 16.247 82.7884C17.9563 83.0426 45.9626 83.1622 49.171 82.923C53.0691 82.6388 55.0181 82.1303 56.9822 80.8444C59.6659 79.0948 61.7799 76.4328 62.5594 73.8009C63.3991 70.9746 63.609 65.9801 63.504 50.5476C63.4807 46.9879 63.4559 44.3275 63.4188 42.2822C63.4117 41.8888 63.4081 41.692 63.3237 41.5429C63.2615 41.4331 63.1688 41.3421 63.0578 41.2819C62.9072 41.2002 62.7095 41.2002 62.3142 41.2002H60.3945C59.8699 41.2002 59.6076 41.2002 59.4361 41.0841C59.3101 40.9988 59.2166 40.8734 59.1707 40.7283C59.1083 40.5308 59.1832 40.2794 59.3329 39.7767L61.6639 31.9489C61.7136 31.782 61.7385 31.6985 61.7409 31.6097C61.7427 31.5469 61.7338 31.4735 61.7173 31.4129C61.6938 31.3272 61.6537 31.2586 61.5736 31.1214C61.0011 30.1417 60.2403 29.2051 59.2161 28.1763C57.7448 26.7089 56.4777 25.7869 54.7891 25.1915Z" fill="#000"/>
<path d="M52.81 42.0405C55.9841 39.417 58.4473 42.4973 55.7698 45.373C54.1065 47.1594 52.9684 48.3872 43.9941 59.0422C35.0198 69.6972 32.4512 74.0938 26.0119 67.929C19.5727 61.7642 22.5867 64.5602 18.4172 60.5034C14.2477 56.4466 11.4998 54.1841 15.4922 50.1373C19.4846 46.0904 21.9762 49.27 27.0098 53.7139C32.0435 58.1577 31.3099 59.4831 38.2876 53.898C45.2653 48.3129 49.6359 44.6639 52.81 42.0405Z" fill="#000"/>
<path d="M102.959 72.391C100.57 72.391 98.7407 72.279 97.4714 72.055L93.2154 38.679C92.5434 37.8577 91.5167 37.2977 90.1354 36.999L90.4714 34.703H105.759L105.423 36.943C104.49 37.055 103.725 37.2043 103.127 37.391C102.567 37.5777 102.101 37.839 101.727 38.175L104.471 61.695L116.175 35.711C117.631 35.2257 119.367 34.983 121.383 34.983L124.743 61.695L135.271 38.679C133.927 37.7083 132.434 37.1297 130.791 36.943L131.071 34.703H143.167L142.887 36.999C142.066 37.0737 141.375 37.2417 140.815 37.503C140.255 37.7643 139.826 38.1937 139.527 38.791L123.343 72.335C120.917 72.335 119.087 72.2417 117.855 72.055L114.495 47.975L102.959 72.391ZM163.432 72.391C161.752 72.391 160.558 71.9803 159.848 71.159C159.139 70.3377 158.784 69.1243 158.784 67.519C158.784 66.7723 158.896 65.5963 159.12 63.991C159.382 62.3483 159.662 60.7057 159.96 59.063C159.998 58.7643 160.166 57.7003 160.464 55.871C160.8 54.0043 160.968 52.6603 160.968 51.839C160.968 49.4497 160.184 48.255 158.616 48.255C157.758 48.255 156.787 48.8897 155.704 50.159C154.659 51.391 153.707 52.9963 152.848 54.975C152.027 56.9537 151.448 58.9883 151.112 61.079L149.376 72.055H141.48L146.296 41.759C146.334 41.5723 146.39 41.2737 146.464 40.863C146.539 40.415 146.576 39.967 146.576 39.519C146.576 37.9137 145.83 37.111 144.336 37.111C143.926 37.111 143.534 37.1483 143.16 37.223L142.992 35.039C144.336 34.479 146.072 34.0123 148.2 33.639C150.366 33.2657 152.27 33.0603 153.912 33.023L155.424 33.975L152.848 49.935C155.2 46.3137 158.187 44.503 161.808 44.503C164.048 44.503 165.784 45.119 167.016 46.351C168.286 47.5457 168.92 49.2257 168.92 51.391C168.92 52.2123 168.491 55.311 167.632 60.687C167.035 64.719 166.736 66.8097 166.736 66.959C166.736 67.8177 167.147 68.247 167.968 68.247C168.603 68.247 169.462 67.9483 170.544 67.351L171.272 69.367C170.526 70.1137 169.35 70.8043 167.744 71.439C166.139 72.0737 164.702 72.391 163.432 72.391ZM183.374 72.671C181.769 72.671 180.294 72.279 178.95 71.495C177.606 70.711 176.523 69.5537 175.702 68.023C174.881 66.455 174.47 64.551 174.47 62.311C174.47 58.7643 175.067 55.647 176.262 52.959C177.457 50.271 179.193 48.199 181.47 46.743C183.747 45.2497 186.491 44.503 189.702 44.503C191.457 44.503 193.398 44.8763 195.526 45.623C196.758 44.9137 198.326 44.559 200.23 44.559C200.678 44.559 201.275 44.5963 202.022 44.671L201.798 46.183C201.201 49.6177 200.51 53.8177 199.726 58.783C198.942 63.7483 198.55 66.511 198.55 67.071C198.55 67.8177 198.942 68.191 199.726 68.191C200.099 68.191 200.529 68.1163 201.014 67.967C201.499 67.8177 201.947 67.6123 202.358 67.351L203.086 69.479C201.854 70.263 200.585 70.9537 199.278 71.551C198.009 72.111 196.627 72.391 195.134 72.391C193.678 72.391 192.558 72.0737 191.774 71.439C191.027 70.767 190.654 69.927 190.654 68.919C188.899 71.4203 186.473 72.671 183.374 72.671ZM185.894 69.255C188.582 69.255 190.579 65.5403 191.886 58.111L193.678 47.751C192.782 47.415 191.886 47.247 190.99 47.247C189.385 47.247 187.947 47.8257 186.678 48.983C185.409 50.103 184.401 51.8203 183.654 54.135C182.907 56.4123 182.534 59.1937 182.534 62.479C182.534 64.6817 182.833 66.3617 183.43 67.519C184.065 68.6763 184.886 69.255 185.894 69.255ZM213.359 72.279C211.418 72.279 209.943 71.831 208.935 70.935C207.965 70.039 207.479 68.7697 207.479 67.127C207.479 66.343 208.207 61.3777 209.663 52.231L210.223 48.927H206.247L206.639 46.463C208.543 45.791 210.317 44.839 211.959 43.607C213.639 42.375 215.021 40.9563 216.103 39.351H219.743L218.847 45.287H226.015L225.399 48.927H218.175L217.671 51.951C217.447 53.407 217.037 56.039 216.439 59.847C215.842 63.6177 215.543 65.727 215.543 66.175C215.543 67.4817 216.234 68.135 217.615 68.135C218.213 68.135 218.978 67.9297 219.911 67.519C220.882 67.1083 221.741 66.6603 222.487 66.175L223.831 68.023C222.599 69.1803 220.994 70.1883 219.015 71.047C217.037 71.8683 215.151 72.279 213.359 72.279ZM225.096 69.759C225.992 69.6097 226.72 69.423 227.28 69.199C227.878 68.9377 228.494 68.5643 229.128 68.079L233.776 38.679C232.843 37.7457 231.611 37.1857 230.08 36.999L230.416 34.703H243.912L248.448 59.903L260.208 34.703H273.424L273.088 36.999C272.155 37.1483 271.39 37.3537 270.792 37.615C270.232 37.839 269.635 38.1937 269 38.679L264.352 68.079C265.024 68.7883 266.275 69.3483 268.104 69.759L267.824 72.055H252.032L252.312 69.759C253.208 69.6097 253.936 69.423 254.496 69.199C255.094 68.9377 255.71 68.5643 256.344 68.079L259.984 44.951L247.16 72.055H242.848L237.64 44.951L234 68.079C234.672 68.7883 235.923 69.3483 237.752 69.759L237.472 72.055H224.816L225.096 69.759ZM285.417 72.447C281.646 72.447 278.753 71.5137 276.737 69.647C274.758 67.7803 273.769 64.999 273.769 61.303C273.769 58.055 274.385 55.1617 275.617 52.623C276.849 50.0843 278.641 48.1057 280.993 46.687C283.382 45.231 286.238 44.503 289.561 44.503C293.331 44.503 296.206 45.455 298.185 47.359C300.201 49.263 301.209 52.0443 301.209 55.703C301.209 58.9883 300.593 61.9003 299.361 64.439C298.166 66.9403 296.374 68.9003 293.985 70.319C291.633 71.7377 288.777 72.447 285.417 72.447ZM285.865 69.311C288.366 69.311 290.195 67.7057 291.353 64.495C292.547 61.247 293.145 57.607 293.145 53.575C293.145 51.5217 292.809 50.0283 292.137 49.095C291.502 48.1243 290.494 47.639 289.113 47.639C287.433 47.639 286.033 48.4603 284.913 50.103C283.83 51.7083 283.046 53.7243 282.561 56.151C282.075 58.5403 281.833 60.9857 281.833 63.487C281.833 65.503 282.15 66.9777 282.785 67.911C283.457 68.8443 284.483 69.311 285.865 69.311ZM314.872 72.447C314.051 72.4843 313.08 72.4657 311.96 72.391C310.877 72.3163 310 72.2043 309.328 72.055L306.584 51.559C306.397 50.2897 306.005 49.4123 305.408 48.927C304.848 48.4043 304.101 48.143 303.168 48.143L302.832 46.351C303.728 45.8283 304.941 45.4177 306.472 45.119C308.003 44.8203 309.627 44.671 311.344 44.671C312.277 44.671 312.987 44.6897 313.472 44.727L316.104 64.551L321.592 56.039C322.115 55.2177 322.637 54.191 323.16 52.959C323.683 51.727 323.944 50.6443 323.944 49.711C323.944 48.8523 323.683 48.2923 323.16 48.031C322.637 47.7323 321.853 47.583 320.808 47.583L320.584 45.511C321.48 45.2497 322.581 45.0443 323.888 44.895C325.195 44.7083 326.389 44.615 327.472 44.615C328.293 44.615 329.04 44.6523 329.712 44.727L330.664 46.183C330.477 47.3777 330.048 48.871 329.376 50.663C328.704 52.4177 327.659 54.3217 326.24 56.375L314.872 72.447ZM338.46 72.391C336.78 72.391 335.585 71.9803 334.876 71.159C334.167 70.3377 333.812 69.1243 333.812 67.519C333.812 66.4363 334.279 63.095 335.212 57.495C335.847 53.6123 336.164 51.447 336.164 50.999C336.164 49.3937 335.417 48.591 333.924 48.591C333.737 48.591 333.345 48.6283 332.748 48.703L332.58 46.519C333.924 45.959 335.66 45.4923 337.788 45.119C339.953 44.7457 341.857 44.5403 343.5 44.503L345.012 45.287L344.284 49.991C342.567 60.5937 341.708 66.231 341.708 66.903C341.708 67.799 342.137 68.247 342.996 68.247C343.631 68.247 344.489 67.9483 345.572 67.351L346.3 69.367C345.553 70.1137 344.377 70.8043 342.772 71.439C341.167 72.0737 339.729 72.391 338.46 72.391ZM341.652 40.695C340.569 40.695 339.692 40.415 339.02 39.855C338.348 39.295 338.012 38.4923 338.012 37.447C338.012 36.0657 338.423 34.9643 339.244 34.143C340.103 33.2843 341.241 32.855 342.66 32.855C343.78 32.855 344.657 33.1537 345.292 33.751C345.964 34.311 346.3 35.095 346.3 36.103C346.3 37.4843 345.871 38.6043 345.012 39.463C344.191 40.2843 343.071 40.695 341.652 40.695ZM360.744 72.447C357.384 72.447 354.714 71.4763 352.736 69.535C350.757 67.5563 349.768 64.887 349.768 61.527C349.768 58.2417 350.421 55.311 351.728 52.735C353.034 50.159 354.882 48.143 357.272 46.687C359.698 45.231 362.498 44.503 365.672 44.503C368.733 44.503 371.048 45.0443 372.616 46.127C374.184 47.2097 374.968 48.591 374.968 50.271C374.968 53.407 373.456 55.871 370.432 57.663C367.408 59.4177 363.189 60.295 357.776 60.295C357.626 61.3777 357.552 62.311 357.552 63.095C357.552 64.8497 358.018 66.2123 358.952 67.183C359.885 68.1163 361.21 68.583 362.928 68.583C364.309 68.583 365.765 68.303 367.296 67.743C368.864 67.183 370.226 66.4363 371.384 65.503L373.232 67.687C371.44 69.1803 369.442 70.3563 367.24 71.215C365.074 72.0363 362.909 72.447 360.744 72.447ZM358.28 57.047C359.96 57.0097 361.546 56.6737 363.04 56.039C364.533 55.4043 365.728 54.583 366.624 53.575C367.557 52.5297 368.024 51.4097 368.024 50.215C368.024 49.2817 367.781 48.5537 367.296 48.031C366.81 47.5083 366.082 47.247 365.112 47.247C363.245 47.247 361.789 48.0683 360.744 49.711C359.736 51.3163 358.914 53.7617 358.28 57.047Z" fill="#000"/>
</svg>
