<svg viewBox="0 0 425 108" fill="none" xmlns="http://www.w3.org/2000/svg">
<path fill-rule="evenodd" clip-rule="evenodd" d="M17.8062 23.2415C21.0296 21.0433 23.7433 20.3554 30.0703 20.1311C34.6729 19.9666 52.3943 19.9517 56.7572 20.1161C60.9851 20.2657 63.309 20.5349 65.2431 21.1031C70.2956 22.5537 75.0033 27.2492 76.4725 32.2887C77.0722 34.3673 77.2972 36.4908 77.462 41.7994C77.6571 47.7511 77.537 67.1315 77.2972 69.9129C76.8174 75.1468 75.588 78.1975 72.6494 81.3228C69.8459 84.2987 66.8923 85.9137 62.9792 86.5716C60.3854 87.0204 57.0571 87.11 43.7136 87.11C27.4165 87.11 25.1076 86.9754 21.7942 85.9137C18.5858 84.8968 15.4373 82.5042 13.2634 79.4386C11.6592 77.2105 10.7146 74.5786 10.2649 71.184C10.01 69.24 9.89005 41.5452 10.1299 38.2104C10.4748 33.1859 11.1944 30.7335 13.1435 27.8773C14.118 26.4417 16.2919 24.2734 17.8062 23.2415ZM64.7891 25.1915C64.2487 25.001 63.9785 24.9058 63.7468 24.9942C63.5891 25.0544 63.4375 25.1987 63.3695 25.3532C63.2697 25.5802 63.3587 25.8794 63.5369 26.4777L64.2318 28.811C64.2684 28.934 64.2867 28.9955 64.2932 29.0582C64.2981 29.1052 64.298 29.1526 64.293 29.1995C64.2863 29.2622 64.2678 29.3237 64.2307 29.4466L60.9259 40.4123C60.8372 40.7067 60.7929 40.8539 60.7024 40.9608C60.6353 41.0403 60.5507 41.1032 60.4552 41.1445C60.3267 41.2002 60.1729 41.2002 59.8654 41.2002H53.1674C52.6459 41.2002 52.3851 41.2002 52.214 41.0849C52.0882 41.0001 51.9947 40.8755 51.9484 40.7311C51.8853 40.5345 51.9582 40.2842 52.1038 39.7835L55.1133 29.4368C55.148 29.3176 55.1653 29.258 55.1716 29.1973C55.1763 29.1518 55.1763 29.106 55.1717 29.0605C55.1656 28.9997 55.1484 28.9401 55.114 28.8208L53.9742 24.8674C53.8889 24.5717 53.8463 24.4238 53.7569 24.3156C53.6905 24.2354 53.6062 24.1713 53.5111 24.1289C53.3829 24.0718 53.2294 24.0703 52.9224 24.0675C51.2112 24.0515 49.198 24.0409 47.0786 24.0357C46.5537 24.0345 46.2913 24.0338 46.1193 24.1499C45.9931 24.2351 45.8992 24.3607 45.8532 24.5059C45.7906 24.7037 45.8656 24.9553 46.0155 25.4586L47.0144 28.8109C47.0511 28.934 47.0694 28.9955 47.0759 29.0582C47.0808 29.1052 47.0807 29.1526 47.0757 29.1995C47.069 29.2623 47.0505 29.3237 47.0134 29.4466L43.7087 40.4123C43.62 40.7067 43.5756 40.8539 43.4852 40.9608C43.418 41.0403 43.3334 41.1032 43.2379 41.1445C43.1094 41.2002 42.9556 41.2002 42.6481 41.2002H35.95C35.4285 41.2002 35.1677 41.2002 34.9966 41.0849C34.8708 41.0001 34.7773 40.8755 34.731 40.7311C34.6679 40.5345 34.7408 40.2842 34.8864 39.7834L37.8961 29.4366C37.9308 29.3175 37.9481 29.2579 37.9543 29.1972C37.959 29.1518 37.9591 29.106 37.9545 29.0605C37.9485 28.9998 37.9313 28.9402 37.897 28.821L36.7578 24.863C36.6711 24.5619 36.6278 24.4114 36.5365 24.3021C36.4688 24.221 36.3828 24.1568 36.2858 24.115C36.155 24.0585 35.9985 24.0598 35.6854 24.0623C32.8801 24.0849 30.636 24.1202 29.6204 24.1687C29.32 24.1818 29.1699 24.1884 29.0565 24.2369C28.8262 24.3356 28.6667 24.5596 28.6488 24.8096C28.6401 24.9325 28.6836 25.0786 28.7708 25.3708L29.797 28.8108C29.8337 28.9339 29.8521 28.9954 29.8586 29.0582C29.8635 29.1052 29.8634 29.1526 29.8584 29.1996C29.8517 29.2623 29.8332 29.3238 29.7961 29.4468L26.4914 40.4123C26.4027 40.7067 26.3583 40.8539 26.2679 40.9608C26.2007 41.0403 26.1161 41.1032 26.0207 41.1445C25.8921 41.2002 25.7384 41.2002 25.4308 41.2002H18.7328C18.2112 41.2002 17.9504 41.2002 17.7793 41.0849C17.6535 41.0001 17.56 40.8755 17.5137 40.7311C17.4507 40.5345 17.5235 40.2842 17.6691 39.7834L20.6787 29.4369C20.7134 29.3177 20.7307 29.2581 20.737 29.1973C20.7416 29.1518 20.7417 29.106 20.7371 29.0605C20.731 28.9997 20.7138 28.94 20.6794 28.8207L20.4681 28.0884C20.3211 27.5789 20.2476 27.3241 20.0689 27.1886C19.9457 27.0952 19.7661 27.0419 19.6118 27.0532C19.3881 27.0694 19.2025 27.2302 18.8313 27.5517C16.7048 29.3933 15.1574 31.8878 14.6277 34.4869C14.073 37.1787 13.9981 39.8404 14.073 55.2581L14.0732 55.3053C14.148 71.0647 14.1488 71.2315 14.9426 73.8757C15.8272 76.8216 18.5858 79.9919 21.5844 81.4873C22.7238 82.0705 24.298 82.5042 26.247 82.7884C27.9563 83.0426 55.9626 83.1622 59.171 82.923C63.0691 82.6388 65.0181 82.1303 66.9822 80.8444C69.6659 79.0948 71.7799 76.4328 72.5594 73.8009C73.3991 70.9746 73.609 65.9801 73.504 50.5476C73.4807 46.9879 73.4559 44.3275 73.4188 42.2822C73.4117 41.8888 73.4081 41.692 73.3237 41.5429C73.2615 41.4331 73.1688 41.3421 73.0578 41.2819C72.9072 41.2002 72.7095 41.2002 72.3142 41.2002H70.3945C69.8699 41.2002 69.6076 41.2002 69.4361 41.0841C69.3101 40.9988 69.2166 40.8734 69.1707 40.7283C69.1083 40.5308 69.1832 40.2794 69.3329 39.7767L71.6639 31.9489C71.7136 31.782 71.7385 31.6985 71.7409 31.6097C71.7427 31.5469 71.7338 31.4735 71.7173 31.4129C71.6938 31.3272 71.6537 31.2586 71.5736 31.1214C71.0011 30.1417 70.2403 29.2051 69.2161 28.1763C67.7448 26.7089 66.4777 25.7869 64.7891 25.1915Z" fill="#000"/>
<path d="M62.81 42.0405C65.9841 39.417 68.4473 42.4973 65.7698 45.373C64.1065 47.1594 62.9684 48.3872 53.9941 59.0422C45.0198 69.6972 42.4512 74.0938 36.0119 67.929C29.5727 61.7642 32.5867 64.5602 28.4172 60.5034C24.2477 56.4466 21.4998 54.1841 25.4922 50.1373C29.4846 46.0904 31.9762 49.27 37.0098 53.7139C42.0435 58.1577 41.3099 59.4831 48.2876 53.898C55.2653 48.3129 59.6359 44.6639 62.81 42.0405Z" fill="#000"/>
<path d="M101.127 40.0798C100.939 39.399 100.561 38.8883 99.9947 38.5479C99.5913 38.2785 99.0634 38.0378 98.411 37.826C97.9302 37.6699 97.6064 37.2063 97.669 36.7046L97.7332 36.19C97.7957 35.6895 98.2211 35.3139 98.7255 35.3139H112.2C112.811 35.3139 113.279 35.8574 113.189 36.4619L113.142 36.7726C113.072 37.244 112.677 37.5926 112.205 37.6594C111.304 37.7869 110.549 38.052 109.938 38.4547C109.623 38.6625 109.517 39.0609 109.618 39.4245L115.143 59.2933C115.412 60.262 116.782 60.2721 117.065 59.3076L123.91 36.0317C124.035 35.6061 124.426 35.3139 124.87 35.3139H128.351C128.798 35.3139 129.19 35.6098 129.313 36.0391L135.992 59.4117C136.266 60.3693 137.619 60.3819 137.91 59.4295L143.877 39.9297C143.988 39.5694 143.891 39.1704 143.586 38.9492C142.824 38.3971 141.799 37.9944 140.511 37.7413C139.97 37.635 139.581 37.1407 139.65 36.5937L139.7 36.19C139.763 35.6895 140.188 35.3139 140.692 35.3139H151.193C151.795 35.3139 152.26 35.8409 152.186 36.4377L152.148 36.7419C152.087 37.2274 151.683 37.5897 151.198 37.6574C150.605 37.7402 150.075 37.8857 149.607 38.094C148.965 38.3966 148.569 38.8127 148.418 39.3422L137.431 72.4726C137.296 72.8817 136.913 73.1578 136.482 73.1578H132.23C131.788 73.1578 131.398 72.8669 131.272 72.4427L125.154 51.8542C124.874 50.9122 123.545 50.8968 123.244 51.832L116.586 72.4649C116.453 72.8779 116.068 73.1578 115.634 73.1578H111.395C110.949 73.1578 110.557 72.8627 110.434 72.4343L101.127 40.0798Z" fill="#000"/>
<path d="M154.519 71.505C154.562 71.0704 154.883 70.7197 155.304 70.6029C155.682 70.4977 155.992 70.3848 156.233 70.2642C156.546 70.1218 156.869 69.915 157.203 69.6439C157.421 69.4675 157.535 69.197 157.535 68.917V41.4415C157.535 40.042 157.271 39.0964 156.743 38.6046C156.389 38.2233 155.82 37.9597 155.036 37.8137C154.486 37.7113 154.059 37.2384 154.102 36.6802L154.136 36.2392C154.17 35.7926 154.497 35.4236 154.939 35.3469C155.515 35.2468 156.286 35.1224 157.252 34.9734C160.756 34.383 163.053 33.9489 164.143 33.6714C164.41 33.6033 164.695 33.6311 164.936 33.7653L165.064 33.8365C165.381 34.013 165.578 34.3474 165.578 34.7103V46.2005C165.578 47.1183 166.785 47.6161 167.546 47.1033C168.045 46.7673 168.578 46.4687 169.146 46.2075C170.543 45.5644 172.034 45.2429 173.62 45.2429C176.187 45.2429 178.245 46.0183 179.793 47.5692C181.341 49.12 182.115 51.2571 182.115 53.9805V68.9646C182.115 69.2499 182.234 69.526 182.468 69.6898C182.768 69.9001 183.141 70.1105 183.588 70.3209C183.978 70.482 184.389 70.622 184.822 70.741C185.309 70.8753 185.654 71.3241 185.615 71.8281L185.584 72.2344C185.544 72.7554 185.11 73.1578 184.587 73.1578H172.208C171.625 73.1578 171.166 72.662 171.211 72.0813L171.24 71.7002C171.274 71.2536 171.605 70.8939 172.029 70.7494C172.71 70.5174 173.302 70.1637 173.804 69.6883C173.984 69.5182 174.073 69.2761 174.073 69.0284V54.4912C174.073 52.6377 173.771 51.276 173.167 50.4061C172.6 49.4983 171.732 49.0444 170.562 49.0444C169.618 49.0444 168.693 49.328 167.786 49.8954C166.957 50.3804 166.269 51.0398 165.724 51.8737C165.625 52.0252 165.578 52.2038 165.578 52.3847V68.9116C165.578 69.1948 165.694 69.4691 165.923 69.6366C166.491 70.053 167.222 70.3956 168.118 70.6644C168.602 70.81 168.937 71.2672 168.885 71.7707L168.841 72.2029C168.789 72.7131 168.359 73.1011 167.846 73.1011H155.466C154.875 73.1011 154.413 72.592 154.471 72.0042L154.519 71.505Z" fill="#000"/>
<path d="M196.535 73.555C193.93 73.555 191.929 72.9498 190.532 71.7394C189.135 70.529 188.436 68.7701 188.436 66.4628C188.436 64.0042 189.38 62.0751 191.268 60.6756C193.156 59.2382 195.931 58.3871 199.593 58.1224L203.646 57.8456C204.17 57.8098 204.577 57.3737 204.577 56.8479V54.4912C204.577 51.8434 204.256 50.0089 203.615 48.9876C203.01 47.9663 201.934 47.4557 200.386 47.4557C199.329 47.4557 198.442 47.7394 197.724 48.3068C197.045 48.8363 196.705 49.5172 196.705 50.3493C196.705 51.1008 196.967 51.7568 197.492 52.3172C197.751 52.5942 197.915 52.9716 197.788 53.3293C197.55 54.0018 197.151 54.5593 196.592 55.0018C195.874 55.5692 195.006 55.8529 193.987 55.8529C192.741 55.8529 191.702 55.4557 190.872 54.6614C190.041 53.867 189.626 52.8836 189.626 51.711C189.626 49.7063 190.57 48.1366 192.457 47.0018C194.383 45.8292 197.026 45.2429 200.386 45.2429C204.389 45.2429 207.409 45.9994 209.448 47.5124C211.525 49.0254 212.563 51.2571 212.563 54.2075V69.2649C212.563 69.5068 212.647 69.7457 212.834 69.8984C213.1 70.1149 213.463 70.3314 213.922 70.5479C214.295 70.7016 214.68 70.8362 215.078 70.9517C215.574 71.0954 215.916 71.5636 215.858 72.0761L215.836 72.2712C215.778 72.7763 215.351 73.1578 214.842 73.1578H206.38C205.895 73.1578 205.479 72.8088 205.395 72.3303L205.306 71.8208C205.166 71.0229 204.174 70.7044 203.535 71.2025C202.734 71.8272 201.911 72.3277 201.066 72.7039C199.707 73.2713 198.196 73.555 196.535 73.555ZM199.31 69.867C200.968 69.867 202.643 68.9196 204.335 67.0246C204.493 66.8472 204.577 66.6158 204.577 66.3779V61.6454C204.577 61.0617 204.079 60.602 203.497 60.6486L201.746 60.789C199.669 60.9403 198.178 61.4131 197.271 62.2075C196.365 63.0018 195.912 64.2122 195.912 65.8387C195.912 67.1247 196.195 68.1271 196.762 68.8458C197.366 69.5266 198.215 69.867 199.31 69.867Z" fill="#000"/>
<path d="M228.953 73.3848C226.914 73.3848 225.253 72.8363 223.969 71.7394C222.685 70.6425 222.043 68.9782 222.043 66.7465V50.7252C222.043 50.1729 221.596 49.7252 221.043 49.7252H219.022C218.47 49.7252 218.022 49.2775 218.022 48.7252V47.7996C218.022 47.3871 218.276 47.0191 218.656 46.8568C220.249 46.1748 221.681 45.3153 222.949 44.2784C224.262 43.1995 225.334 41.9553 226.167 40.5459C226.355 40.228 226.691 40.0231 227.06 40.0231H229.142C229.694 40.0231 230.142 40.4708 230.142 41.0231V45.0373C230.142 45.5895 230.59 46.0373 231.142 46.0373H236.391C236.944 46.0373 237.391 46.485 237.391 47.0373V48.7252C237.391 49.2775 236.944 49.7252 236.391 49.7252H231.085C230.533 49.7252 230.085 50.1729 230.085 50.7252V66.2926C230.085 67.3517 230.331 68.1271 230.822 68.6188C231.313 69.0727 231.973 69.2997 232.804 69.2997C233.446 69.2997 234.125 69.1673 234.843 68.9025C235.23 68.7666 235.598 68.6109 235.946 68.4352C236.468 68.171 237.131 68.3181 237.421 68.8268L237.616 69.1692C237.849 69.5768 237.769 70.0948 237.401 70.3855C236.359 71.2075 235.148 71.8857 233.767 72.4202C232.143 73.0633 230.539 73.3848 228.953 73.3848Z" fill="#000"/>
<path d="M253.629 71.5617C253.671 71.1272 253.993 70.7765 254.413 70.6566C254.816 70.5416 255.163 70.4108 255.456 70.2642C255.823 70.0806 256.214 69.7978 256.63 69.416C256.825 69.2369 256.928 68.9807 256.928 68.7158V39.8016C256.928 39.51 256.804 39.2297 256.569 39.0567C255.953 38.603 255.168 38.1852 254.212 37.8031C253.783 37.6314 253.507 37.2022 253.554 36.7421L253.608 36.212C253.661 35.7018 254.09 35.3139 254.603 35.3139H265.798C266.219 35.3139 266.595 35.5777 266.738 35.9738L274.719 58.0458C275.045 58.9474 276.33 58.9179 276.614 58.0023L283.442 36.0173C283.572 35.5989 283.959 35.3139 284.397 35.3139H296.314C296.927 35.3139 297.396 35.86 297.303 36.4656L297.235 36.9073C297.177 37.2861 296.906 37.5951 296.545 37.7244C295.532 38.0875 294.691 38.5318 294.022 39.0571C293.801 39.231 293.685 39.5026 293.685 39.7841V68.6889C293.685 68.9696 293.8 69.2416 294.024 69.4097C294.736 69.9419 295.725 70.3785 296.99 70.7195C297.511 70.86 297.857 71.3673 297.762 71.8988L297.684 72.3342C297.598 72.8109 297.184 73.1578 296.699 73.1578H283.29C282.699 73.1578 282.237 72.6487 282.295 72.0609L282.343 71.5617C282.386 71.1272 282.707 70.7765 283.127 70.6566C283.53 70.5416 283.877 70.4108 284.17 70.2642C284.538 70.0797 284.919 69.7952 285.313 69.4106C285.493 69.2344 285.586 68.9894 285.586 68.7373V44.3679C285.586 44.3498 285.571 44.3351 285.553 44.3351C285.539 44.3351 285.526 44.3444 285.522 44.3579L276.576 72.4612C276.444 72.8761 276.059 73.1578 275.623 73.1578H272.69C272.271 73.1578 271.897 72.897 271.752 72.5043L261.92 45.8889C261.916 45.8758 261.903 45.867 261.889 45.867C261.871 45.867 261.856 45.882 261.856 45.9004V68.6889C261.856 68.9696 261.97 69.2416 262.195 69.4097C262.907 69.9419 263.896 70.3785 265.161 70.7195C265.682 70.86 266.028 71.3673 265.933 71.8988L265.855 72.3342C265.769 72.8109 265.354 73.1578 264.87 73.1578H254.576C253.985 73.1578 253.523 72.6487 253.581 72.0609L253.629 71.5617Z" fill="#000"/>
<path d="M315.191 73.555C310.698 73.555 307.3 72.3635 304.996 69.9805C302.731 67.5975 301.598 64.0987 301.598 59.4841C301.598 54.8316 302.731 51.2949 304.996 48.8741C307.3 46.4533 310.698 45.2429 315.191 45.2429C319.684 45.2429 323.063 46.4533 325.329 48.8741C327.632 51.2949 328.783 54.8127 328.783 59.4273C328.783 64.042 327.632 67.5597 325.329 69.9805C323.063 72.3635 319.684 73.555 315.191 73.555ZM315.191 70.3777C317.041 70.3777 318.381 69.5266 319.212 67.8245C320.043 66.0845 320.458 63.2855 320.458 59.4273C320.458 55.5692 320.043 52.7701 319.212 51.0302C318.381 49.2902 317.041 48.4202 315.191 48.4202C313.341 48.4202 312 49.2902 311.17 51.0302C310.339 52.7701 309.924 55.5692 309.924 59.4273C309.924 63.2855 310.339 66.0845 311.17 67.8245C312 69.5266 313.341 70.3777 315.191 70.3777Z" fill="#000"/>
<path d="M332.226 50.0656C331.848 48.9934 330.972 48.263 329.597 47.8744C329.103 47.7349 328.737 47.2933 328.766 46.7812L328.774 46.6399C328.804 46.1106 329.242 45.6968 329.773 45.6968H342.514C343.122 45.6968 343.59 46.2357 343.504 46.838L343.499 46.8736C343.432 47.3444 343.041 47.6944 342.572 47.7729C341.911 47.8835 341.313 48.0812 340.78 48.3659C340.392 48.5729 340.255 49.0436 340.402 49.458L344.874 62.0826C345.182 62.9528 346.404 62.9762 346.746 62.1183L351.69 49.6905C351.866 49.2485 351.708 48.7378 351.277 48.5355C350.706 48.2669 350.028 48.0434 349.243 47.865C348.724 47.747 348.358 47.268 348.418 46.7393L348.436 46.5835C348.494 46.0783 348.921 45.6968 349.43 45.6968H357.951C358.548 45.6968 359.012 46.2168 358.944 46.8102L358.94 46.8503C358.885 47.3319 358.488 47.6918 358.018 47.8111C357.717 47.8877 357.426 47.9962 357.146 48.1366C356.671 48.3406 356.287 48.6058 355.995 48.9321C355.93 49.0048 355.881 49.0903 355.845 49.1808L346.467 72.5305C346.315 72.9095 345.948 73.1578 345.539 73.1578H341.089C340.665 73.1578 340.287 72.8906 340.146 72.4908L332.226 50.0656Z" fill="#000"/>
<path d="M361.524 71.5617C361.566 71.1272 361.887 70.7764 362.308 70.6596C362.687 70.5544 362.996 70.4415 363.237 70.3209C363.55 70.1785 363.873 69.9718 364.208 69.7006C364.425 69.5242 364.54 69.2538 364.54 68.9738V53.0727C364.54 51.711 364.275 50.7843 363.747 50.2926C363.393 49.9113 362.825 49.6477 362.041 49.5017C361.49 49.3992 361.064 48.9264 361.106 48.3681L361.14 47.9272C361.175 47.4806 361.502 47.1115 361.943 47.0348C362.519 46.9348 363.29 46.8103 364.257 46.6614C367.773 46.0688 370.073 45.6339 371.158 45.3565C371.419 45.2899 371.697 45.314 371.934 45.44L371.994 45.4717C372.321 45.6451 372.525 45.985 372.525 46.3551V68.9177C372.525 69.2299 372.669 69.528 372.93 69.6982C373.597 70.132 374.378 70.4762 375.272 70.731C375.765 70.8717 376.11 71.3337 376.058 71.8444L376.015 72.2597C375.963 72.7699 375.534 73.1578 375.021 73.1578H362.47C361.88 73.1578 361.418 72.6487 361.475 72.0609L361.524 71.5617ZM367.995 41.8387C366.484 41.8387 365.352 41.4983 364.596 40.8174C363.841 40.1366 363.464 39.1531 363.464 37.867C363.464 35.2193 364.974 33.8954 367.995 33.8954C369.467 33.8954 370.581 34.2358 371.336 34.9167C372.091 35.5975 372.469 36.581 372.469 37.867C372.469 39.1531 372.091 40.1366 371.336 40.8174C370.581 41.4983 369.467 41.8387 367.995 41.8387Z" fill="#000"/>
<path d="M392.1 73.555C387.72 73.555 384.416 72.3257 382.188 69.867C379.998 67.3706 378.904 63.9663 378.904 59.6543C378.904 55.1531 380.074 51.6354 382.415 49.1011C384.756 46.529 388.135 45.2429 392.553 45.2429C396.781 45.2429 399.783 46.2264 401.558 48.1933C403.281 50.1036 404.275 52.9238 404.538 56.6538C404.553 56.8702 404.494 57.0853 404.374 57.2659L403.27 58.9246C403.085 59.2032 402.773 59.3706 402.438 59.3706H387.91C387.409 59.3706 387.002 59.777 387.002 60.2784C387.002 63.4557 387.455 65.8198 388.362 67.3706C389.268 68.8836 390.967 69.6401 393.459 69.6401C394.894 69.6401 396.291 69.3942 397.65 68.9025C398.725 68.4949 399.689 67.9303 400.54 67.2088C400.964 66.85 401.598 66.8355 401.995 67.2234L402.817 68.0259C403.215 68.4148 403.221 69.0559 402.81 69.4317C401.484 70.646 400.103 71.6044 398.669 72.3068C397.008 73.1389 394.818 73.555 392.1 73.555ZM395.565 56.6926C396.098 56.6672 396.519 56.2269 396.507 55.6932C396.448 53.1557 396.15 51.2798 395.611 50.0656C395.007 48.7039 393.912 48.0231 392.326 48.0231C389.099 48.0231 387.337 50.6929 387.041 56.0327C387.009 56.6102 387.492 57.0777 388.07 57.0502L395.565 56.6926Z" fill="#000"/>
</svg>
