<svg viewBox="0 0 216 28" fill="none" xmlns="http://www.w3.org/2000/svg">
<path d="M2.45119 4.53475C2.31832 4.05749 2.05258 3.69955 1.65397 3.46092C1.40631 3.29619 1.09198 3.1468 0.710968 3.01277C0.365607 2.89128 0.192927 2.83054 0.103783 2.72105C0.0746824 2.68531 0.0550272 2.65356 0.0360101 2.61159C-0.0222446 2.48303 -0.001559 2.31791 0.0398121 1.98768V1.98768C0.0819928 1.65099 0.103083 1.48265 0.201654 1.36817C0.231641 1.33334 0.266284 1.3028 0.304609 1.27741C0.430583 1.19394 0.600454 1.19394 0.940195 1.19394H10.1168C10.4498 1.19394 10.6163 1.19394 10.7345 1.26386C10.8288 1.31966 10.9022 1.40479 10.9434 1.50622C10.9951 1.63332 10.9704 1.79776 10.9209 2.12663V2.12663C10.8854 2.36326 10.8676 2.48157 10.816 2.56703C10.771 2.64165 10.7231 2.68985 10.6487 2.73539C10.5635 2.78755 10.4287 2.80881 10.1592 2.85132C9.63883 2.93338 9.1894 3.08246 8.81088 3.29857C8.59163 3.42374 8.48201 3.48633 8.41657 3.64541C8.35114 3.80449 8.39305 3.95458 8.47686 4.25477L12.0356 17.0012C12.4162 18.3643 12.6065 19.0459 12.9842 19.0487C13.362 19.0515 13.5623 18.3728 13.9631 17.0155L18.4227 1.91208C18.5248 1.56624 18.5758 1.39332 18.7093 1.29363C18.8429 1.19394 19.0234 1.19394 19.3844 1.19394H21.3868C21.7505 1.19394 21.9324 1.19394 22.0664 1.29478C22.2003 1.39563 22.2505 1.57023 22.3507 1.91945L26.7123 17.1194C27.0913 18.4404 27.2809 19.1009 27.655 19.1044C28.0292 19.1078 28.231 18.451 28.6347 17.1373L32.4846 4.60733C32.5756 4.31114 32.6211 4.16305 32.5634 4.00518C32.5058 3.84732 32.3974 3.77744 32.1806 3.63768C31.6943 3.32406 31.0731 3.08668 30.317 2.92555C29.9728 2.85218 29.8006 2.8155 29.7011 2.72618C29.6428 2.6739 29.6041 2.61955 29.5738 2.54742C29.5221 2.42417 29.5423 2.26298 29.5826 1.94059V1.94059C29.6192 1.64917 29.6374 1.50346 29.7144 1.39861C29.757 1.34049 29.8117 1.29225 29.8748 1.25719C29.9885 1.19394 30.1355 1.19394 30.4296 1.19394H37.5672C37.8901 1.19394 38.0516 1.19394 38.1678 1.26079C38.2627 1.31542 38.3371 1.39961 38.3796 1.50047C38.4316 1.62391 38.4115 1.78391 38.3714 2.10389V2.10389C38.341 2.34666 38.3258 2.46804 38.2754 2.55554C38.2302 2.63399 38.1816 2.68402 38.1045 2.73161C38.0185 2.78469 37.8798 2.80642 37.6025 2.84988C37.2211 2.90965 36.8776 3.00727 36.5721 3.14275C36.1204 3.35486 35.8413 3.64652 35.735 4.01772L28.0708 27.0362C27.9607 27.367 27.9056 27.5324 27.7743 27.627C27.6429 27.7216 27.4684 27.7216 27.1194 27.7216H24.5641C24.2041 27.7216 24.0241 27.7216 23.8907 27.6223C23.7574 27.5231 23.706 27.3508 23.6032 27.0062L19.6359 13.7084C19.2585 12.4433 19.0697 11.8107 18.7006 11.8064C18.3314 11.8021 18.1279 12.4301 17.721 13.686L13.3983 27.0285C13.29 27.3628 13.2358 27.53 13.104 27.6258C12.9721 27.7216 12.7962 27.7216 12.4444 27.7216H9.90213C9.53901 27.7216 9.35745 27.7216 9.22359 27.621C9.08972 27.5204 9.0394 27.3462 8.93876 26.9977L2.45119 4.53475Z" fill="#000"/>
<path d="M40.0155 26.7029C40.0417 26.4355 40.0548 26.3017 40.1171 26.2021C40.1416 26.163 40.165 26.1345 40.1986 26.1028C40.2843 26.0223 40.4279 25.9788 40.715 25.8919C40.9217 25.8294 41.0951 25.7632 41.2352 25.6932C41.4227 25.6082 41.6156 25.4905 41.8139 25.3401C41.9696 25.222 42.0475 25.163 42.0998 25.0578C42.152 24.9526 42.152 24.8405 42.152 24.6161V5.48927C42.152 4.50824 41.966 3.84538 41.594 3.50069C41.372 3.26213 41.0292 3.08928 40.5657 2.98213C40.1714 2.89098 39.9743 2.8454 39.8753 2.75175C39.8265 2.70555 39.7992 2.66834 39.7697 2.60798C39.7098 2.48563 39.723 2.31519 39.7493 1.97433V1.97433C39.7701 1.70424 39.7805 1.5692 39.8492 1.46271C39.8789 1.41674 39.9185 1.37337 39.9616 1.33965C40.0615 1.26158 40.1921 1.23939 40.4533 1.19502C40.8425 1.12891 41.3423 1.04901 41.9527 0.955308C44.3753 0.54869 45.978 0.247927 46.7609 0.0530189C46.9 0.0183949 46.9696 0.00108298 47.0267 0.000100103C47.0806 -0.000826918 47.1219 0.00461156 47.1737 0.0194724C47.2287 0.0352285 47.2852 0.0665524 47.3982 0.1292V0.1292C47.5496 0.213152 47.6254 0.255127 47.6804 0.314999C47.7281 0.366919 47.7642 0.428309 47.7865 0.495153C47.8123 0.572235 47.8123 0.658734 47.8123 0.831731V8.04445C47.8123 9.08394 47.8123 9.60368 48.0561 9.74946C48.2999 9.89524 48.8216 9.61599 49.865 9.0575C50.0141 8.97766 50.167 8.90186 50.3235 8.83009C51.3067 8.37934 52.3564 8.15397 53.4725 8.15397C55.2795 8.15397 56.7278 8.69751 57.8174 9.7846C58.9069 10.8717 59.4517 12.3698 59.4517 14.2788V24.6467C59.4517 24.8744 59.4517 24.9882 59.5127 25.1002C59.5738 25.2122 59.6533 25.2634 59.8121 25.3658C60.002 25.4882 60.2273 25.6106 60.488 25.733C60.7224 25.8293 60.9674 25.9148 61.2232 25.9897C61.5341 26.0807 61.6896 26.1263 61.7788 26.213C61.8286 26.2613 61.8613 26.3086 61.889 26.3723C61.9386 26.4863 61.9272 26.6339 61.9044 26.9291V26.9291C61.8804 27.2402 61.8684 27.3958 61.7899 27.5079C61.7488 27.5665 61.6957 27.6156 61.6341 27.652C61.5161 27.7216 61.3599 27.7216 61.0475 27.7216H52.6341C52.287 27.7216 52.1134 27.7216 51.9899 27.6427C51.9178 27.5966 51.8587 27.5329 51.8183 27.4575C51.749 27.3285 51.7623 27.1557 51.7889 26.81V26.81C51.8075 26.5686 51.8168 26.4479 51.862 26.3591C51.8924 26.2992 51.9183 26.2649 51.9675 26.2192C52.0405 26.1513 52.1789 26.0998 52.4558 25.9968C52.8544 25.8484 53.2079 25.6387 53.5164 25.3677C53.6404 25.2587 53.7024 25.2043 53.7469 25.1059C53.7914 25.0076 53.7914 24.9086 53.7914 24.7106V14.6367C53.7914 13.3375 53.5788 12.383 53.1536 11.7732C52.755 11.1368 52.1438 10.8187 51.32 10.8187C50.6557 10.8187 50.0046 11.0175 49.3668 11.4152C48.8061 11.7416 48.3378 12.1807 47.962 12.7325C47.8918 12.8355 47.8567 12.8871 47.8345 12.9591C47.8123 13.0311 47.8123 13.102 47.8123 13.2439V24.6106C47.8123 24.8379 47.8123 24.9515 47.871 25.0618C47.9298 25.1721 48.0082 25.2248 48.1649 25.3302C48.5154 25.5659 48.946 25.7657 49.4568 25.9295C49.7762 26.0319 49.936 26.0831 50.0245 26.1768C50.068 26.2229 50.0966 26.2665 50.1214 26.3248C50.1718 26.4434 50.1561 26.5956 50.1249 26.8999V26.8999C50.0926 27.2139 50.0764 27.3709 49.9925 27.4822C49.954 27.5334 49.9059 27.5767 49.851 27.6098C49.7315 27.6818 49.5735 27.6818 49.2574 27.6818H40.9047C40.5035 27.6818 40.3029 27.6818 40.1682 27.579C40.1198 27.5421 40.0785 27.4967 40.0464 27.4449C39.9571 27.301 39.9765 27.1016 40.0155 26.7029V26.7029Z" fill="#000"/>
<path d="M69.6006 28C67.767 28 66.3586 27.5758 65.3754 26.7273C64.3921 25.8788 63.9005 24.6459 63.9005 23.0285C63.9005 21.3051 64.5649 19.9529 65.8936 18.9718C67.2222 17.9643 69.1754 17.3677 71.7531 17.1821L74.3263 17.0071C74.7694 16.9769 74.9909 16.9619 75.1259 16.8175C75.2609 16.6732 75.2609 16.4515 75.2609 16.008V14.6367C75.2609 12.7807 75.035 11.4948 74.5832 10.7789C74.158 10.063 73.4007 9.70506 72.3112 9.70506C71.5671 9.70506 70.9426 9.90392 70.4377 10.3016C69.9594 10.6728 69.7202 11.1501 69.7202 11.7334C69.7202 12.1984 69.864 12.6112 70.1517 12.9718C70.3896 13.2699 70.5085 13.419 70.5267 13.5567C70.545 13.6943 70.5012 13.7951 70.4137 13.9966C70.2424 14.3909 69.9847 14.7236 69.6405 14.9947C69.1356 15.3924 68.5244 15.5913 67.8069 15.5913C66.9299 15.5913 66.1992 15.3129 65.6145 14.7561C65.0299 14.1993 64.7376 13.5099 64.7376 12.6879C64.7376 11.2827 65.4019 10.1823 66.7306 9.38689C68.0859 8.56494 69.9461 8.15397 72.3112 8.15397C75.128 8.15397 77.2539 8.68426 78.6889 9.74483C80.1505 10.8054 80.8812 12.3698 80.8812 14.4379V24.8792C80.8812 25.0706 80.8812 25.1664 80.9355 25.2732C80.9898 25.38 81.0472 25.4219 81.1621 25.5058C81.3384 25.6346 81.5637 25.7633 81.8379 25.8921C82.0797 25.9914 82.3291 26.0794 82.5861 26.1559C82.8358 26.2303 82.9606 26.2675 83.0369 26.3285C83.124 26.3981 83.1768 26.4779 83.2067 26.5853C83.2329 26.6793 83.2194 26.7971 83.1924 27.0328V27.0328C83.1659 27.2637 83.1527 27.3792 83.1022 27.468C83.0479 27.5636 82.9637 27.6386 82.8625 27.6816C82.7684 27.7216 82.652 27.7216 82.4193 27.7216H76.6393C76.3737 27.7216 76.2409 27.7216 76.1349 27.6686C76.0647 27.6334 76.0036 27.5823 75.9568 27.5192C75.8862 27.4241 75.8632 27.2935 75.8173 27.0322V27.0322C75.7215 26.4873 75.6736 26.2148 75.5414 26.0987C75.4486 26.0172 75.3541 25.9793 75.2306 25.9743C75.0547 25.9672 74.8125 26.1453 74.3281 26.5016C73.8272 26.8701 73.3144 27.1707 72.7895 27.4034C71.8328 27.8011 70.7699 28 69.6006 28ZM71.5538 25.4148C72.6961 25.4148 73.85 24.7781 75.0155 23.5046C75.1338 23.3755 75.1929 23.3109 75.2269 23.2234C75.2609 23.136 75.2609 23.0432 75.2609 22.8575V19.9769C75.2609 19.4693 75.2609 19.2154 75.0996 19.0667C74.9384 18.918 74.685 18.9383 74.1783 18.9787L73.2678 19.0514C71.8063 19.1574 70.7566 19.4889 70.1188 20.0457C69.481 20.6025 69.1621 21.4509 69.1621 22.5911C69.1621 23.4926 69.3615 24.1952 69.7601 24.699C70.1852 25.1762 70.7832 25.4148 71.5538 25.4148Z" fill="#000"/>
<path d="M92.4166 27.8807C90.9816 27.8807 89.8124 27.4962 88.9089 26.7273C88.0054 25.9584 87.5536 24.7918 87.5536 23.2274V12.2973C87.5536 11.8253 87.5536 11.5892 87.4068 11.4426C87.2599 11.2959 87.0236 11.2959 86.5509 11.2959H85.7261C85.2535 11.2959 85.0171 11.2959 84.8703 11.1493C84.7235 11.0026 84.7235 10.7666 84.7235 10.2945V10.1524C84.7235 9.82536 84.7235 9.66183 84.8044 9.53739C84.8854 9.41295 85.0429 9.34307 85.3578 9.20332C86.4041 8.73897 87.3486 8.16381 88.1914 7.47785C89.0671 6.76091 89.791 5.93985 90.3632 5.01466C90.5252 4.75276 90.6061 4.6218 90.72 4.55839C90.8338 4.49498 90.977 4.49498 91.2632 4.49498H92.2511C92.7237 4.49498 92.96 4.49498 93.1069 4.64163C93.2537 4.78828 93.2537 5.02431 93.2537 5.49637V7.70938C93.2537 8.18144 93.2537 8.41747 93.4005 8.56412C93.5474 8.71077 93.7837 8.71077 94.2564 8.71077H97.3532C97.8259 8.71077 98.0622 8.71077 98.2091 8.85742C98.3559 9.00407 98.3559 9.2401 98.3559 9.71216V10.2945C98.3559 10.7666 98.3559 11.0026 98.2091 11.1493C98.0622 11.2959 97.8259 11.2959 97.3532 11.2959H94.2165C93.7438 11.2959 93.5075 11.2959 93.3607 11.4426C93.2138 11.5892 93.2138 11.8253 93.2138 12.2973V22.9092C93.2138 23.6516 93.3866 24.1952 93.732 24.5399C94.0775 24.858 94.5425 25.0171 95.1272 25.0171C95.5789 25.0171 96.0573 24.9243 96.5622 24.7387C96.7833 24.6615 96.9952 24.5751 97.1979 24.4795C97.5553 24.311 97.734 24.2268 97.8663 24.2369C97.9512 24.2433 98.0099 24.2618 98.0832 24.3051C98.1974 24.3725 98.2832 24.5223 98.4548 24.822V24.822C98.5874 25.0535 98.6537 25.1693 98.6565 25.2967C98.6579 25.3663 98.6415 25.4477 98.6131 25.5113C98.5611 25.6277 98.4635 25.7022 98.2685 25.8511C97.5567 26.3947 96.7355 26.8458 95.8048 27.2046C94.6621 27.6553 93.5327 27.8807 92.4166 27.8807Z" fill="#000"/>
<path d="M109.771 26.7426C109.797 26.4752 109.81 26.3414 109.871 26.2422C109.896 26.203 109.919 26.1751 109.952 26.1433C110.037 26.0629 110.181 26.0181 110.469 25.9286C110.697 25.858 110.897 25.7795 111.07 25.6932C111.301 25.5782 111.545 25.4078 111.803 25.1818C111.946 25.0574 112.017 24.9952 112.062 24.8966C112.106 24.798 112.106 24.6929 112.106 24.4827V4.47859C112.106 4.24579 112.106 4.12939 112.049 4.02026C111.992 3.91112 111.908 3.85318 111.741 3.73728C111.362 3.47547 110.9 3.23113 110.356 3.00428C110.048 2.87612 109.894 2.81204 109.812 2.70144C109.79 2.67281 109.774 2.64611 109.759 2.61377C109.701 2.48881 109.717 2.33296 109.749 2.02127V2.02127C109.786 1.6636 109.804 1.48477 109.91 1.36474C109.935 1.33527 109.965 1.30892 109.997 1.28625C110.127 1.19394 110.307 1.19394 110.667 1.19394H118.14C118.48 1.19394 118.65 1.19394 118.779 1.28466C118.909 1.37539 118.967 1.53492 119.082 1.85399L124.325 16.296C124.746 17.4531 124.956 18.0317 125.316 18.0235C125.676 18.0152 125.859 17.4276 126.225 16.2524L130.701 1.89758C130.807 1.5584 130.86 1.38881 130.993 1.29137C131.125 1.19394 131.303 1.19394 131.659 1.19394H139.625C140.028 1.19394 140.23 1.19394 140.364 1.29455C140.422 1.33822 140.47 1.39398 140.504 1.45798C140.583 1.60545 140.553 1.80453 140.491 2.20268V2.20268C140.457 2.42467 140.44 2.53566 140.387 2.62165C140.362 2.66177 140.337 2.69283 140.303 2.72502C140.229 2.79402 140.115 2.83627 139.887 2.92078C139.271 3.14912 138.749 3.42131 138.32 3.73737C138.162 3.85317 138.084 3.91107 138.03 4.01753C137.976 4.12398 137.976 4.23632 137.976 4.461V24.4558C137.976 24.6807 137.976 24.7932 138.034 24.9025C138.091 25.0118 138.168 25.065 138.323 25.1715C138.782 25.4878 139.389 25.7534 140.143 25.9683C140.487 26.0664 140.659 26.1155 140.754 26.2183C140.8 26.2671 140.83 26.3163 140.854 26.3782C140.905 26.509 140.875 26.6738 140.816 27.0034V27.0034C140.763 27.2943 140.737 27.4398 140.652 27.5415C140.614 27.5876 140.567 27.6264 140.515 27.6561C140.4 27.7216 140.252 27.7216 139.956 27.7216H130.869C130.468 27.7216 130.267 27.7216 130.133 27.6188C130.084 27.5819 130.043 27.5364 130.011 27.4847C129.922 27.3408 129.941 27.1414 129.98 26.7426V26.7426C130.006 26.4752 130.019 26.3414 130.081 26.2422C130.105 26.203 130.128 26.1751 130.162 26.1433C130.246 26.0629 130.39 26.0181 130.679 25.9286C130.906 25.858 131.107 25.7795 131.279 25.6932C131.512 25.5773 131.751 25.405 131.998 25.1765C132.128 25.0562 132.192 24.996 132.234 24.9003C132.276 24.8046 132.276 24.7045 132.276 24.5043V7.54063C132.276 7.52793 132.266 7.51762 132.253 7.51762V7.51762C132.243 7.51762 132.234 7.5241 132.231 7.53364L126.001 27.0247C125.894 27.3608 125.84 27.5288 125.708 27.6252C125.576 27.7216 125.399 27.7216 125.046 27.7216H123.407C123.07 27.7216 122.901 27.7216 122.772 27.6319C122.643 27.5421 122.584 27.3841 122.467 27.0681L115.62 8.60678C115.616 8.59757 115.608 8.59146 115.598 8.59146V8.59146C115.585 8.59146 115.574 8.60197 115.574 8.61493V24.4558C115.574 24.6807 115.574 24.7932 115.632 24.9025C115.689 25.0118 115.767 25.065 115.921 25.1715C116.38 25.4878 116.987 25.7534 117.741 25.9683C118.085 26.0664 118.257 26.1155 118.353 26.2183C118.398 26.2671 118.428 26.3163 118.452 26.3782C118.503 26.509 118.473 26.6738 118.414 27.0034V27.0034C118.362 27.2943 118.335 27.4398 118.251 27.5415C118.212 27.5876 118.166 27.6264 118.113 27.6561C117.998 27.7216 117.85 27.7216 117.554 27.7216H110.66C110.259 27.7216 110.058 27.7216 109.923 27.6188C109.875 27.5819 109.834 27.5364 109.801 27.4847C109.712 27.3408 109.732 27.1414 109.771 26.7426V26.7426Z" fill="#000"/>
<path d="M153.112 28C149.95 28 147.558 27.1648 145.937 25.4944C144.343 23.824 143.546 21.3714 143.546 18.1366C143.546 14.8754 144.343 12.3963 145.937 10.6994C147.558 9.00243 149.95 8.15397 153.112 8.15397C156.275 8.15397 158.653 9.00243 160.247 10.6994C161.868 12.3963 162.679 14.8621 162.679 18.0969C162.679 21.3316 161.868 23.7975 160.247 25.4944C158.653 27.1648 156.275 28 153.112 28ZM153.112 25.7728C154.414 25.7728 155.358 25.1762 155.942 23.9831C156.527 22.7634 156.819 20.8013 156.819 18.0969C156.819 15.3924 156.527 13.4303 155.942 12.2107C155.358 10.991 154.414 10.3812 153.112 10.3812C151.81 10.3812 150.867 10.991 150.282 12.2107C149.698 13.4303 149.405 15.3924 149.405 18.0969C149.405 20.8013 149.698 22.7634 150.282 23.9831C150.867 25.1762 151.81 25.7728 153.112 25.7728Z" fill="#000"/>
<path d="M165.102 11.5346C164.84 10.7947 164.239 10.2871 163.297 10.0115C163.054 9.94057 162.933 9.90508 162.863 9.8547C162.764 9.78313 162.709 9.7061 162.675 9.58872C162.651 9.50609 162.657 9.39859 162.67 9.18358V9.18358C162.683 8.9593 162.689 8.84715 162.73 8.7592C162.784 8.64523 162.879 8.55572 162.996 8.50855C163.087 8.47214 163.199 8.47214 163.424 8.47214H172.33C172.555 8.47214 172.668 8.47214 172.754 8.50501C172.911 8.56475 173.028 8.69892 173.065 8.86243C173.085 8.9524 173.069 9.0639 173.037 9.2869V9.2869C173.014 9.45244 173.002 9.53521 172.975 9.59719C172.922 9.71924 172.847 9.79522 172.727 9.85138C172.665 9.87989 172.568 9.89621 172.375 9.92884C171.994 9.99302 171.643 10.0982 171.322 10.2444C171.039 10.3736 170.898 10.4382 170.822 10.6175C170.746 10.7968 170.807 10.9711 170.931 11.3195L173.738 19.2125C174.113 20.2646 174.3 20.7907 174.646 20.7973C174.993 20.8039 175.2 20.2854 175.615 19.2484L178.709 11.5013C178.858 11.1287 178.932 10.9424 178.852 10.753C178.772 10.5635 178.61 10.4966 178.285 10.3629C177.947 10.2238 177.563 10.1043 177.132 10.0043C176.889 9.94782 176.767 9.91957 176.689 9.86502C176.587 9.79471 176.522 9.7033 176.49 9.58417C176.465 9.49175 176.478 9.37657 176.505 9.1462V9.1462C176.53 8.92925 176.542 8.82077 176.587 8.73635C176.643 8.63218 176.734 8.5511 176.844 8.50749C176.933 8.47214 177.043 8.47214 177.261 8.47214H183.193C183.415 8.47214 183.526 8.47214 183.611 8.50444C183.765 8.56232 183.88 8.69148 183.92 8.8503C183.943 8.93893 183.93 9.04889 183.905 9.26882V9.26882C183.885 9.43989 183.875 9.52543 183.852 9.58603C183.803 9.71154 183.747 9.77511 183.63 9.84089C183.573 9.87264 183.463 9.90069 183.245 9.95678C183.036 10.0103 182.835 10.0855 182.641 10.1823C182.322 10.3185 182.062 10.4935 181.861 10.7074C181.822 10.7485 181.803 10.7691 181.777 10.8085C181.752 10.8478 181.738 10.8837 181.709 10.9554L175.201 27.0943C175.078 27.3982 175.017 27.5501 174.89 27.6358C174.763 27.7216 174.599 27.7216 174.271 27.7216H171.551C171.208 27.7216 171.037 27.7216 170.907 27.6298C170.777 27.538 170.72 27.3768 170.605 27.0545L165.102 11.5346Z" fill="#000"/>
<path d="M185.708 26.7426C185.735 26.4752 185.748 26.3415 185.81 26.2418C185.834 26.2027 185.858 26.1742 185.891 26.1426C185.977 26.062 186.121 26.0186 186.408 25.9317C186.615 25.8692 186.788 25.8029 186.928 25.733C187.116 25.648 187.308 25.5303 187.507 25.3799C187.662 25.2618 187.74 25.2028 187.793 25.0976C187.845 24.9924 187.845 24.8802 187.845 24.6559V13.6425C187.845 12.6879 187.659 12.0383 187.287 11.6936C187.065 11.4551 186.722 11.2822 186.259 11.1751C185.864 11.0839 185.667 11.0384 185.568 10.9447C185.519 10.8985 185.492 10.8613 185.463 10.8009C185.403 10.6786 185.416 10.5081 185.442 10.1673V10.1673C185.463 9.8972 185.473 9.76215 185.542 9.65567C185.572 9.60969 185.611 9.56632 185.654 9.5326C185.754 9.45453 185.885 9.43234 186.146 9.38797C186.535 9.32186 187.035 9.24196 187.646 9.14826C190.101 8.73611 191.714 8.43272 192.485 8.23808C192.599 8.20949 192.655 8.19519 192.701 8.19221C192.768 8.18783 192.82 8.19407 192.884 8.21414C192.927 8.22784 192.974 8.25219 193.066 8.3009V8.3009C193.194 8.3687 193.258 8.40261 193.308 8.4491C193.375 8.51198 193.423 8.59197 193.447 8.68035C193.465 8.74571 193.465 8.81823 193.465 8.96326V24.5997C193.465 24.8504 193.465 24.9758 193.53 25.0901C193.594 25.2045 193.688 25.2616 193.877 25.3757C194.281 25.6209 194.742 25.8222 195.259 25.9795C195.579 26.0771 195.74 26.1259 195.829 26.2166C195.877 26.2653 195.908 26.3118 195.934 26.3748C195.983 26.4922 195.968 26.6438 195.937 26.947V26.947C195.905 27.254 195.889 27.4074 195.809 27.5172C195.768 27.5721 195.717 27.6182 195.658 27.6527C195.541 27.7216 195.386 27.7216 195.077 27.7216H186.598C186.196 27.7216 185.996 27.7216 185.861 27.6188C185.813 27.5819 185.771 27.5364 185.739 27.4847C185.65 27.3408 185.669 27.1414 185.708 26.7426V26.7426ZM190.276 5.76767C189.213 5.76767 188.416 5.52904 187.885 5.05178C187.353 4.57452 187.088 3.88515 187.088 2.98366C187.088 1.12765 188.15 0.199648 190.276 0.199648C191.313 0.199648 192.097 0.438277 192.628 0.915537C193.16 1.3928 193.425 2.08217 193.425 2.98366C193.425 3.88515 193.16 4.57452 192.628 5.05178C192.097 5.52904 191.313 5.76767 190.276 5.76767Z" fill="#000"/>
<path d="M207.242 28C204.159 28 201.834 27.1383 200.266 25.4148C198.725 23.6649 197.954 21.2786 197.954 18.256C197.954 15.1007 198.778 12.6349 200.426 10.8584C202.073 9.05546 204.452 8.15397 207.561 8.15397C210.537 8.15397 212.65 8.84334 213.899 10.2221C215.096 11.5438 215.793 13.487 215.989 16.0515C216.001 16.2132 216.007 16.294 215.986 16.3752C215.965 16.4565 215.918 16.5263 215.825 16.6658L215.193 17.6116C215.047 17.8297 214.974 17.9387 214.863 17.9979C214.753 18.0571 214.621 18.0571 214.359 18.0571H204.292C204.165 18.0571 204.102 18.0571 204.05 18.0684C203.858 18.1099 203.707 18.2599 203.666 18.4521C203.654 18.5043 203.654 18.5674 203.654 18.6934V18.6934C203.654 20.9207 203.973 22.5778 204.611 23.6649C205.249 24.7255 206.445 25.2558 208.199 25.2558C209.208 25.2558 210.192 25.0834 211.148 24.7387C211.809 24.4893 212.409 24.1562 212.95 23.7392C213.354 23.4275 213.556 23.2716 213.743 23.2823C213.93 23.293 214.094 23.4521 214.421 23.7702L214.566 23.9111C214.913 24.2489 215.087 24.4179 215.081 24.6369C215.075 24.8559 214.901 25.0084 214.552 25.3134C213.689 26.0687 212.793 26.6726 211.866 27.125C210.696 27.7083 209.155 28 207.242 28ZM209.396 16.1934C209.852 16.1718 210.079 16.161 210.219 16.0099C210.358 15.8587 210.351 15.6369 210.335 15.1933C210.279 13.559 210.072 12.3394 209.713 11.5346C209.288 10.58 208.517 10.1028 207.401 10.1028C205.196 10.1028 203.963 11.8673 203.703 15.3964C203.667 15.8846 203.649 16.1287 203.806 16.2901C203.964 16.4515 204.217 16.4395 204.725 16.4154L209.396 16.1934Z" fill="#000"/>
</svg>
