<svg viewBox="0 0 184 26" fill="none" xmlns="http://www.w3.org/2000/svg">
<path d="M8.24399 25.416C6.70799 25.416 5.53199 25.344 4.71599 25.2L1.97999 3.74401C1.54799 3.21601 0.887994 2.85601 -5.72205e-06 2.66401L0.215994 1.18801H10.044L9.82799 2.62801C9.22799 2.70001 8.73599 2.79601 8.352 2.91601C7.99199 3.03601 7.69199 3.20401 7.45199 3.42001L9.21599 18.54L16.74 1.83601C17.676 1.52401 18.792 1.36801 20.088 1.36801L22.248 18.54L29.016 3.74401C28.152 3.12001 27.192 2.74801 26.136 2.62801L26.316 1.18801H34.092L33.912 2.66401C33.384 2.71201 32.94 2.82001 32.58 2.98801C32.22 3.15601 31.944 3.43201 31.752 3.81601L21.348 25.38C19.788 25.38 18.612 25.32 17.82 25.2L15.66 9.72001L8.24399 25.416ZM47.1195 25.416C46.0395 25.416 45.2715 25.152 44.8155 24.624C44.3595 24.096 44.1315 23.316 44.1315 22.284C44.1315 21.804 44.2035 21.048 44.3475 20.016C44.5155 18.96 44.6955 17.904 44.8875 16.848C44.9115 16.656 45.0195 15.972 45.2115 14.796C45.4275 13.596 45.5355 12.732 45.5355 12.204C45.5355 10.668 45.0315 9.90001 44.0235 9.90001C43.4715 9.90001 42.8475 10.308 42.1515 11.124C41.4795 11.916 40.8675 12.948 40.3155 14.22C39.7875 15.492 39.4155 16.8 39.1995 18.144L38.0835 25.2H33.0075L36.1035 5.72401C36.1275 5.60401 36.1635 5.41201 36.2115 5.14801C36.2595 4.86001 36.2835 4.57201 36.2835 4.28401C36.2835 3.25201 35.8035 2.73601 34.8435 2.73601C34.5795 2.73601 34.3275 2.76001 34.0875 2.80801L33.9795 1.40401C34.8435 1.04401 35.9595 0.74401 37.3275 0.50401C38.7195 0.264011 39.9435 0.132011 40.9995 0.108011L41.9715 0.720012L40.3155 10.98C41.8275 8.65201 43.7475 7.48801 46.0755 7.48801C47.5155 7.48801 48.6315 7.88401 49.4235 8.67601C50.2395 9.44401 50.6475 10.524 50.6475 11.916C50.6475 12.444 50.3715 14.436 49.8195 17.892C49.4355 20.484 49.2435 21.828 49.2435 21.924C49.2435 22.476 49.5075 22.752 50.0355 22.752C50.4435 22.752 50.9955 22.56 51.6915 22.176L52.1595 23.472C51.6795 23.952 50.9235 24.396 49.8915 24.804C48.8595 25.212 47.9355 25.416 47.1195 25.416ZM59.9392 25.596C58.9072 25.596 57.9592 25.344 57.0952 24.84C56.2312 24.336 55.5352 23.592 55.0072 22.608C54.4792 21.6 54.2152 20.376 54.2152 18.936C54.2152 16.656 54.5992 14.652 55.3672 12.924C56.1352 11.196 57.2512 9.86401 58.7152 8.92801C60.1792 7.96801 61.9432 7.48801 64.0072 7.48801C65.1352 7.48801 66.3832 7.72801 67.7512 8.20801C68.5432 7.75201 69.5512 7.52401 70.7752 7.52401C71.0632 7.52401 71.4472 7.54801 71.9272 7.59601L71.7832 8.56801C71.3992 10.776 70.9552 13.476 70.4512 16.668C69.9472 19.86 69.6952 21.636 69.6952 21.996C69.6952 22.476 69.9472 22.716 70.4512 22.716C70.6912 22.716 70.9672 22.668 71.2792 22.572C71.5912 22.476 71.8792 22.344 72.1432 22.176L72.6112 23.544C71.8192 24.048 71.0032 24.492 70.1632 24.876C69.3472 25.236 68.4592 25.416 67.4992 25.416C66.5632 25.416 65.8432 25.212 65.3392 24.804C64.8592 24.372 64.6192 23.832 64.6192 23.184C63.4912 24.792 61.9312 25.596 59.9392 25.596ZM61.5592 23.4C63.2872 23.4 64.5712 21.012 65.4112 16.236L66.5632 9.57601C65.9872 9.36001 65.4112 9.25201 64.8352 9.25201C63.8032 9.25201 62.8792 9.62401 62.0632 10.368C61.2472 11.088 60.5992 12.192 60.1192 13.68C59.6392 15.144 59.3992 16.932 59.3992 19.044C59.3992 20.46 59.5912 21.54 59.9752 22.284C60.3832 23.028 60.9112 23.4 61.5592 23.4ZM79.2155 25.344C77.9675 25.344 77.0195 25.056 76.3715 24.48C75.7475 23.904 75.4355 23.088 75.4355 22.032C75.4355 21.528 75.9035 18.336 76.8395 12.456L77.1995 10.332H74.6435L74.8955 8.74801C76.1195 8.31601 77.2595 7.70401 78.3155 6.91201C79.3955 6.12001 80.2835 5.20801 80.9795 4.17601H83.3195L82.7435 7.99201H87.3515L86.9555 10.332H82.3115L81.9875 12.276C81.8435 13.212 81.5795 14.904 81.1955 17.352C80.8115 19.776 80.6195 21.132 80.6195 21.42C80.6195 22.26 81.0635 22.68 81.9515 22.68C82.3355 22.68 82.8275 22.548 83.4275 22.284C84.0515 22.02 84.6035 21.732 85.0835 21.42L85.9475 22.608C85.1555 23.352 84.1235 24 82.8515 24.552C81.5795 25.08 80.3675 25.344 79.2155 25.344ZM86.7606 23.724C87.3366 23.628 87.8046 23.508 88.1646 23.364C88.5486 23.196 88.9446 22.956 89.3526 22.644L92.3406 3.74401C91.7406 3.14401 90.9486 2.78401 89.9646 2.66401L90.1806 1.18801H98.8566L101.773 17.388L109.333 1.18801H117.829L117.613 2.66401C117.013 2.76001 116.521 2.89201 116.137 3.06001C115.777 3.20401 115.393 3.43201 114.985 3.74401L111.997 22.644C112.429 23.1 113.233 23.46 114.409 23.724L114.229 25.2H104.077L104.257 23.724C104.833 23.628 105.301 23.508 105.661 23.364C106.045 23.196 106.441 22.956 106.849 22.644L109.189 7.77601L100.945 25.2H98.1726L94.8246 7.77601L92.4846 22.644C92.9166 23.1 93.7206 23.46 94.8966 23.724L94.7166 25.2H86.5806L86.7606 23.724ZM125.538 25.452C123.114 25.452 121.254 24.852 119.958 23.652C118.686 22.452 118.05 20.664 118.05 18.288C118.05 16.2 118.446 14.34 119.238 12.708C120.03 11.076 121.182 9.80401 122.694 8.89201C124.23 7.95601 126.066 7.48801 128.202 7.48801C130.626 7.48801 132.474 8.10001 133.746 9.32401C135.042 10.548 135.69 12.336 135.69 14.688C135.69 16.8 135.294 18.672 134.502 20.304C133.734 21.912 132.582 23.172 131.046 24.084C129.534 24.996 127.698 25.452 125.538 25.452ZM125.826 23.436C127.434 23.436 128.61 22.404 129.354 20.34C130.122 18.252 130.506 15.912 130.506 13.32C130.506 12 130.29 11.04 129.858 10.44C129.45 9.81601 128.802 9.50401 127.914 9.50401C126.834 9.50401 125.934 10.032 125.214 11.088C124.518 12.12 124.014 13.416 123.702 14.976C123.39 16.512 123.234 18.084 123.234 19.692C123.234 20.988 123.438 21.936 123.846 22.536C124.278 23.136 124.938 23.436 125.826 23.436ZM144.474 25.452C143.946 25.476 143.322 25.464 142.602 25.416C141.906 25.368 141.342 25.296 140.91 25.2L139.146 12.024C139.026 11.208 138.774 10.644 138.39 10.332C138.03 9.99601 137.55 9.82801 136.95 9.82801L136.734 8.67601C137.31 8.34001 138.09 8.07601 139.074 7.88401C140.058 7.69201 141.102 7.59601 142.206 7.59601C142.806 7.59601 143.262 7.60801 143.574 7.63201L145.266 20.376L148.794 14.904C149.13 14.376 149.466 13.716 149.802 12.924C150.138 12.132 150.306 11.436 150.306 10.836C150.306 10.284 150.138 9.92401 149.802 9.75601C149.466 9.56401 148.962 9.46801 148.29 9.46801L148.146 8.13601C148.722 7.96801 149.43 7.83601 150.27 7.74001C151.11 7.62001 151.878 7.56001 152.574 7.56001C153.102 7.56001 153.582 7.58401 154.014 7.63201L154.626 8.56801C154.506 9.33601 154.23 10.296 153.798 11.448C153.366 12.576 152.694 13.8 151.782 15.12L144.474 25.452ZM159.637 25.416C158.557 25.416 157.789 25.152 157.333 24.624C156.877 24.096 156.649 23.316 156.649 22.284C156.649 21.588 156.949 19.44 157.549 15.84C157.957 13.344 158.161 11.952 158.161 11.664C158.161 10.632 157.681 10.116 156.721 10.116C156.601 10.116 156.349 10.14 155.965 10.188L155.857 8.78401C156.721 8.42401 157.837 8.12401 159.205 7.88401C160.597 7.64401 161.821 7.51201 162.877 7.48801L163.849 7.99201L163.381 11.016C162.277 17.832 161.725 21.456 161.725 21.888C161.725 22.464 162.001 22.752 162.553 22.752C162.961 22.752 163.513 22.56 164.209 22.176L164.677 23.472C164.197 23.952 163.441 24.396 162.409 24.804C161.377 25.212 160.453 25.416 159.637 25.416ZM161.689 5.04001C160.993 5.04001 160.429 4.86001 159.997 4.50001C159.565 4.14001 159.349 3.62401 159.349 2.95201C159.349 2.06401 159.613 1.35601 160.141 0.828011C160.693 0.276011 161.425 1.04904e-05 162.337 1.04904e-05C163.057 1.04904e-05 163.621 0.192011 164.029 0.576012C164.461 0.936011 164.677 1.44001 164.677 2.08801C164.677 2.97601 164.401 3.69601 163.849 4.24801C163.321 4.77601 162.601 5.04001 161.689 5.04001ZM173.962 25.452C171.802 25.452 170.086 24.828 168.814 23.58C167.542 22.308 166.906 20.592 166.906 18.432C166.906 16.32 167.326 14.436 168.166 12.78C169.006 11.124 170.194 9.82801 171.73 8.89201C173.29 7.95601 175.09 7.48801 177.13 7.48801C179.098 7.48801 180.586 7.83601 181.594 8.53201C182.602 9.22801 183.106 10.116 183.106 11.196C183.106 13.212 182.134 14.796 180.19 15.948C178.246 17.076 175.534 17.64 172.054 17.64C171.958 18.336 171.91 18.936 171.91 19.44C171.91 20.568 172.21 21.444 172.81 22.068C173.41 22.668 174.262 22.968 175.366 22.968C176.254 22.968 177.19 22.788 178.174 22.428C179.182 22.068 180.058 21.588 180.802 20.988L181.99 22.392C180.838 23.352 179.554 24.108 178.138 24.66C176.746 25.188 175.354 25.452 173.962 25.452ZM172.378 15.552C173.458 15.528 174.478 15.312 175.438 14.904C176.398 14.496 177.166 13.968 177.742 13.32C178.342 12.648 178.642 11.928 178.642 11.16C178.642 10.56 178.486 10.092 178.174 9.75601C177.862 9.42001 177.394 9.25201 176.77 9.25201C175.57 9.25201 174.634 9.78001 173.962 10.836C173.314 11.868 172.786 13.44 172.378 15.552Z" fill="#1C1C1C"/>
</svg>
