<svg width="49" height="49" viewBox="0 0 49 49" fill="none" xmlns="http://www.w3.org/2000/svg">
<path d="M37.7205 16.547C39.9827 14.6773 41.7381 16.8725 39.8299 18.922C38.6445 20.1952 37.8334 21.0702 31.4376 28.6638C30.8861 29.3185 30.3686 29.9401 29.8803 30.5266C24.7056 36.7417 22.8155 39.0119 18.6221 34.9972C15.9145 32.405 15.5522 32.0359 15.0999 31.5751L15.0998 31.575C14.7855 31.2549 14.4277 30.8904 13.2095 29.7051C13.0672 29.5666 12.9272 29.431 12.7899 29.2981C10.0614 26.6565 8.41588 25.0634 11.1249 22.3174C13.6637 19.7439 15.351 21.2709 18.2335 23.8796C18.5815 24.1945 18.9469 24.5252 19.3333 24.8664C19.8429 25.3163 20.2696 25.7214 20.6409 26.0738C22.883 28.2024 23.1043 28.4125 27.3707 24.9976C31.6707 21.5558 34.5815 19.1457 36.753 17.3477L36.753 17.3476L36.7592 17.3425L36.7597 17.3421L36.788 17.3186C37.1149 17.048 37.425 16.7912 37.7205 16.547Z" fill="#1C1C1C" fill-opacity="1"/>
<path fill-rule="evenodd" clip-rule="evenodd" d="M5.65092 3.1601C7.94112 1.59424 9.86915 1.10424 14.3643 0.944461C17.6345 0.827288 30.2253 0.816636 33.3251 0.933809C36.3289 1.04033 37.98 1.23207 39.3541 1.63685C42.9439 2.6701 46.2887 6.01486 47.3326 9.60461C47.7586 11.0853 47.9184 12.5979 48.0356 16.3793C48.1741 20.6189 48.0889 34.424 47.9184 36.4053C47.5776 40.1335 46.7041 42.3065 44.6163 44.5328C42.6243 46.6526 40.5259 47.803 37.7457 48.2717C35.9029 48.5913 33.5381 48.6552 24.0577 48.6552C12.4789 48.6552 10.8385 48.5593 8.48438 47.803C6.20483 47.0787 3.96789 45.3743 2.42334 43.1907C1.28357 41.6035 0.612484 39.7287 0.292922 37.3107C0.111836 35.9259 0.0266193 16.1983 0.197053 13.8228C0.442051 10.2437 0.953351 8.4968 2.33812 6.46225C3.03051 5.43965 4.57506 3.89509 5.65092 3.1601ZM37.7684 4.20743L38.7029 7.35383L36.1182 15.9525H29.7261L32.2208 7.35383L31.1856 3.75441C29.5915 3.73671 27.5338 3.7265 25.3915 3.72393L26.4703 7.35383L23.8856 15.9525H17.4934L19.9881 7.35383L18.9508 3.74029C16.6815 3.756 14.837 3.78265 14.0448 3.82053C13.746 3.83361 13.4648 3.84781 13.1991 3.86349L14.2376 7.35383L11.6529 15.9525H5.26074L7.75544 7.35383L7.24058 5.5644C5.29133 6.89959 3.83727 8.98307 3.39268 11.1705C2.99855 13.0878 2.94529 14.9839 2.99855 25.9662L2.99871 25.9999C3.05181 37.2257 3.05238 37.3445 3.61637 39.2281C4.24485 41.3266 6.20483 43.5848 8.33525 44.65C9.14481 45.0654 10.2633 45.3743 11.6481 45.5767C12.8624 45.7578 32.7605 45.843 35.04 45.6726C37.8096 45.4702 39.1944 45.108 40.5898 44.192C42.4965 42.9457 43.9985 41.0496 44.5524 39.1748C45.1489 37.1616 45.298 33.6038 45.2234 22.6108C45.2038 19.6023 45.1827 17.4955 45.1472 15.9525H41.9587L44.0076 9.05428C43.586 8.25204 43.0017 7.50582 42.1769 6.67529C40.7959 5.29427 39.6681 4.59144 37.7684 4.20743Z" fill="#1C1C1C" fill-opacity="1"/>
</svg>
